<?xml version="1.0" encoding="UTF-8" standalone="no"?>
<svg
   xml:space="preserve"
   version="1.1"
   style="shape-rendering:geometricPrecision;text-rendering:geometricPrecision;image-rendering:optimizeQuality;"
   viewBox="0 0 333.33 416.66249999999997"
   x="0px"
   y="0px"
   fill-rule="evenodd"
   clip-rule="evenodd"
   id="svg2"
   sodipodi:docname="icecream.svg"
   inkscape:version="1.3 (0e150ed6c4, 2023-07-21)"
   xmlns:inkscape="http://www.inkscape.org/namespaces/inkscape"
   xmlns:sodipodi="http://sodipodi.sourceforge.net/DTD/sodipodi-0.dtd"
   xmlns="http://www.w3.org/2000/svg"
   xmlns:svg="http://www.w3.org/2000/svg"><sodipodi:namedview
     id="namedview2"
     pagecolor="#505050"
     bordercolor="#eeeeee"
     borderopacity="1"
     inkscape:showpageshadow="0"
     inkscape:pageopacity="0"
     inkscape:pagecheckerboard="0"
     inkscape:deskcolor="#505050"
     inkscape:zoom="1.8648186"
     inkscape:cx="166.77225"
     inkscape:cy="208.33125"
     inkscape:window-width="1920"
     inkscape:window-height="991"
     inkscape:window-x="-9"
     inkscape:window-y="-9"
     inkscape:window-maximized="1"
     inkscape:current-layer="svg2" /><defs
     id="defs1"><style
       type="text/css"
       id="style1">&#10;   &#10;    .fil0 {fill:black}&#10;   &#10;  </style></defs><g
     id="g1"><path
       class="fil0"
       d="M166.67 11.09c26.39,0 47.78,21.39 47.78,47.78 0,26.39 -21.39,47.78 -47.78,47.78 -26.39,0 -47.78,-21.39 -47.78,-47.78 0,-26.39 21.39,-47.78 47.78,-47.78zm0 311.14l52.74 -138c-4.57,1.05 -9.33,1.61 -14.22,1.61 -14.5,0 -27.86,-4.9 -38.51,-13.13 -10.9,8.41 -24.39,13.13 -38.53,13.13 -4.89,0 -9.65,-0.56 -14.22,-1.61l52.74 138zm-11.01 -160.41c-7.78,5.49 -17.27,8.72 -27.51,8.72 -26.39,0 -47.78,-21.39 -47.78,-47.78 0,-18.86 10.93,-35.16 26.79,-42.93 5.94,16.84 18.81,30.4 35.2,37.25 -0.17,1.89 -0.26,3.78 -0.26,5.68 0,14.75 5.07,28.31 13.55,39.06zm70.51 -81.99c15.87,7.77 26.79,24.07 26.79,42.93 0,26.39 -21.39,47.78 -47.78,47.78 -26.39,0 -47.78,-21.39 -47.78,-47.78 0,-0.5 0.01,-1 0.02,-1.5 3.01,0.44 6.09,0.68 9.23,0.68 27.48,0 50.86,-17.58 59.5,-42.11z"
       id="path1" /></g></svg>
