<?xml version="1.0" encoding="UTF-8" standalone="no"?>
<svg
   data-name="Layer 3"
   viewBox="0 0 64 80"
   x="0px"
   y="0px"
   version="1.1"
   id="svg11"
   sodipodi:docname="rolls.svg"
   inkscape:version="1.3 (0e150ed6c4, 2023-07-21)"
   xmlns:inkscape="http://www.inkscape.org/namespaces/inkscape"
   xmlns:sodipodi="http://sodipodi.sourceforge.net/DTD/sodipodi-0.dtd"
   xmlns="http://www.w3.org/2000/svg"
   xmlns:svg="http://www.w3.org/2000/svg">
  <defs
     id="defs11" />
  <sodipodi:namedview
     id="namedview11"
     pagecolor="#505050"
     bordercolor="#eeeeee"
     borderopacity="1"
     inkscape:showpageshadow="0"
     inkscape:pageopacity="0"
     inkscape:pagecheckerboard="0"
     inkscape:deskcolor="#505050"
     inkscape:zoom="9.7125"
     inkscape:cx="31.969112"
     inkscape:cy="40"
     inkscape:window-width="1920"
     inkscape:window-height="991"
     inkscape:window-x="-9"
     inkscape:window-y="-9"
     inkscape:window-maximized="1"
     inkscape:current-layer="svg11" />
  <title
     id="title1">spring rolls-gastronomy-nutrition-asian-oriental-food</title>
  <circle
     cx="21"
     cy="27"
     r="2"
     id="circle1" />
  <path
     d="M29,27a7.976,7.976,0,0,1-2.726,6h4.362A9.037,9.037,0,0,0,34,26h2a11.052,11.052,0,0,1-2.523,7h3.159A9.037,9.037,0,0,0,40,26h2a11.052,11.052,0,0,1-2.523,7H43a6,6,0,0,0,0-12H26.274A7.976,7.976,0,0,1,29,27Z"
     id="path1" />
  <path
     d="M18.274,47h5.452A7.976,7.976,0,0,1,21,41,7.976,7.976,0,0,1,18.274,47Z"
     id="path2" />
  <path
     d="M23.726,35H18.274A7.976,7.976,0,0,1,21,41,7.976,7.976,0,0,1,23.726,35Z"
     id="path3" />
  <path
     d="M29,47a6,6,0,1,0-6-6A6.006,6.006,0,0,0,29,47Zm0-10a4,4,0,1,1-4,4A4,4,0,0,1,29,37Z"
     id="path4" />
  <path
     d="M34.274,35a7.966,7.966,0,0,1,0,12h4.362A9.038,9.038,0,0,0,42,40h2a11.052,11.052,0,0,1-2.523,7h3.159A9.038,9.038,0,0,0,48,40h2a11.052,11.052,0,0,1-2.523,7H51a6,6,0,0,0,0-12H34.274Z"
     id="path5" />
  <circle
     cx="29"
     cy="41"
     r="2"
     id="circle5" />
  <rect
     x="3"
     y="49"
     width="58"
     height="5.995"
     id="rect5" />
  <circle
     cx="13"
     cy="41"
     r="2"
     id="circle6" />
  <path
     d="M13,47a6,6,0,1,0-6-6A6.006,6.006,0,0,0,13,47Zm0-10a4,4,0,1,1-4,4A4,4,0,0,1,13,37Z"
     id="path6" />
  <rect
     x="49"
     y="56.995"
     width="8"
     height="4.005"
     id="rect6" />
  <path
     d="M21,33a6,6,0,1,0-6-6A6.006,6.006,0,0,0,21,33Zm0-10a4,4,0,1,1-4,4A4,4,0,0,1,21,23Z"
     id="path7" />
  <rect
     x="7"
     y="56.995"
     width="8"
     height="4.005"
     id="rect7" />
  <path
     d="M31.586,8a1.415,1.415,0,0,1,0,2l-1.293,1.293,1.414,1.414L33,11.414a3.414,3.414,0,0,0,0-4.828L32.414,6a1.415,1.415,0,0,1,0-2l1.293-1.293L32.293,1.293,31,2.586a3.414,3.414,0,0,0,0,4.828Z"
     id="path8" />
  <path
     d="M21.586,12a1.415,1.415,0,0,1,0,2l-1.293,1.293,1.414,1.414L23,15.414a3.414,3.414,0,0,0,0-4.828L22.414,10a1.415,1.415,0,0,1,0-2l1.293-1.293L22.293,5.293,21,6.586a3.414,3.414,0,0,0,0,4.828Z"
     id="path9" />
  <path
     d="M41.586,12a1.415,1.415,0,0,1,0,2l-1.293,1.293,1.414,1.414L43,15.414a3.414,3.414,0,0,0,0-4.828L42.414,10a1.415,1.415,0,0,1,0-2l1.293-1.293L42.293,5.293,41,6.586a3.414,3.414,0,0,0,0,4.828Z"
     id="path10" />
</svg>
