<?xml version="1.0" encoding="UTF-8" standalone="no"?>
<svg
   version="1.1"
   x="0px"
   y="0px"
   viewBox="0 0 512 640"
   style="enable-background:new 0 0 512 512;"
   xml:space="preserve"
   id="svg7"
   sodipodi:docname="noun-chickpeas-3413210.svg"
   inkscape:version="1.3 (0e150ed6c4, 2023-07-21)"
   xmlns:inkscape="http://www.inkscape.org/namespaces/inkscape"
   xmlns:sodipodi="http://sodipodi.sourceforge.net/DTD/sodipodi-0.dtd"
   xmlns="http://www.w3.org/2000/svg"
   xmlns:svg="http://www.w3.org/2000/svg"><defs
     id="defs7" /><sodipodi:namedview
     id="namedview7"
     pagecolor="#505050"
     bordercolor="#eeeeee"
     borderopacity="1"
     inkscape:showpageshadow="0"
     inkscape:pageopacity="0"
     inkscape:pagecheckerboard="0"
     inkscape:deskcolor="#505050"
     showgrid="false"
     inkscape:zoom="1.2140625"
     inkscape:cx="256.16474"
     inkscape:cy="320"
     inkscape:window-width="1920"
     inkscape:window-height="991"
     inkscape:window-x="-9"
     inkscape:window-y="-9"
     inkscape:window-maximized="1"
     inkscape:current-layer="svg7" /><g
     id="g6"><path
       d="M226.688,98.317c-9.093-6.446-21.149-15.45-29.9-22.058c-5.114-3.862-10.255-8.463-16.179-14.477   c-7.09-7.2-14.548-10.605-21.966-10.674c-0.119-0.015-0.215-0.086-0.335-0.095c-0.107-0.006-0.206,0.046-0.313,0.045   c-0.232,0.005-0.464-0.065-0.696-0.054c-0.018,0-0.189,0.018-0.198,0.018c-6.888,0.45-12.992,4.331-16.341,10.399l-1.756,3.187   c-8.193,14.892-19.771,28.064-33.502,38.093l-9.841,7.23c-1.738,1.071-42.757,26.947-49.087,83.912   c-9.012,81.04,9.868,133.511,54.723,151.797c0.675,0.252,9.751,3.655,21.419,3.655c9.58,0,20.897-2.287,30.756-10.471   c0.576-0.468,1.296-0.909,2.152-1.296c3.439-1.594,7.698-1.369,11.371,0.585c19.744,10.39,40.65,9.562,60.44-2.494   c36.626-22.31,60.872-78.032,60.53-116.081C287.416,157.613,247.639,113.164,226.688,98.317z M106.727,331.919   c-47.961-19.546-51.211-84.992-45.494-136.456c5.51-49.573,41.821-72.756,42.658-73.306l10.318-7.554   c13.95-10.194,25.776-23.367,34.767-38.158c-1.496,19.672-4.632,39.917-9.323,60.171c-6.942,29.891-17.332,89.971-8.904,156.209   c0.061,0.751,1.733,15.884,16.651,32.575c-1.145,0.664-2.363,1.265-3.335,2.07C128.893,340.049,106.799,331.946,106.727,331.919z    M219.765,323.024c-15.333,9.31-30.765,10.003-45.881,2.044c-2.736-1.447-5.668-2.255-8.631-2.761   c-17.836-15.386-19.75-30.204-19.838-31.047c-8.166-64.248,1.891-122.374,8.607-151.311c4.871-21.023,8.13-42.055,9.679-62.502   l0.744-9.81c1.816,1.073,3.704,2.52,5.649,4.498c6.446,6.536,12.101,11.587,17.809,15.9c8.85,6.681,21.05,15.792,30.251,22.31   c18.826,13.343,54.57,53.363,55.065,109.319C273.515,252.968,251.637,303.612,219.765,323.024z"
       id="path1" /><path
       d="M225.095,146.737c-2.323-3.34-6.924-4.16-10.264-1.819c-3.34,2.332-4.16,6.924-1.819,10.264   c0.45,0.648,44.792,65.419,0.495,116.009c-2.683,3.07-2.377,7.725,0.684,10.408c1.405,1.224,3.133,1.828,4.862,1.828   c2.053,0,4.088-0.846,5.546-2.512C276.432,221.727,225.617,147.475,225.095,146.737z"
       id="path2" /><g
       id="g4"><path
         d="M283.351,312.991c-5.226,6.775-12.495,15.747-17.837,22.265c-3.069,3.752-6.706,7.499-11.446,11.798    c-6.087,5.542-9.298,11.487-9.546,17.694c-0.007,0.405,0.094,1.022,0,1.352c0.161,5.899,3.264,11.231,8.315,14.271l2.393,1.447    c10.981,6.619,20.555,15.751,27.708,26.407l5.182,7.659c0.782,1.401,19.811,34.4,64.19,41.136    c62.82,9.535,104.346-3.693,120.129-38.394c0.237-0.522,3.086-7.329,3.453-16.523c0.318-7.98-1.238-17.755-8.014-26.784    c-0.903-2.208-0.615-4.899,0.685-7.226c8.921-15.376,8.921-32.064-0.023-48.18c-16.31-29.341-59.059-50.023-88.766-50.956    C331.463,267.479,295.572,297.115,283.351,312.991z M458.963,412.655c-16.059,35.275-65.66,35.666-104.441,29.784    c-37.034-5.623-52.904-32.666-53.857-34.29L295.187,400c-6.149-9.157-13.858-17.33-22.609-24.104    c12.699,1.805,25.566,4.294,38.432,7.823c22.861,6.283,68.917,16.149,120.257,11.683c0.586-0.027,11.895-0.857,24.966-10.951    c0.236,0.359,0.379,0.779,0.638,1.124C465.434,396.82,458.945,412.645,458.963,412.655z M455.638,327.075    c6.391,11.464,6.461,22.802,0.153,33.643c-1.191,2.062-1.923,4.279-2.446,6.533c-11.717,12.35-22.394,13.391-23.058,13.435    c-49.342,4.284-93.467-5.172-115.375-11.191c-16.061-4.407-32.199-7.565-47.975-9.402l-4.367-0.507    c0.504-0.544,0.813-1.062,1.415-1.612c5.291-4.79,9.398-9.041,12.941-13.369c5.418-6.614,12.801-15.726,18.113-22.615    c10.634-13.803,41.938-39.586,84.271-38.275C404.455,284.484,441.986,302.49,455.638,327.075z"
         id="path3" /><path
         d="M336.412,424.127c1.97,1.881,20.928,18.145,76.754,8.307c3.475-0.609,5.954-3.565,6.089-6.956    c0.021-0.522-0.012-1.046-0.099-1.581c-0.705-4.011-4.535-6.696-8.547-5.982c-47.613,8.381-63.585-4.123-64.144-4.578    c-2.956-2.695-7.53-2.544-10.305,0.364C333.359,416.626,333.452,421.315,336.412,424.127z"
         id="path4" /></g><path
       d="M282.036,128.813c0.024,0.489,0.33,6.895,3.465,14.182c2.69,6.252,7.464,13.157,15.908,17.542   c1.194,1.045,1.813,2.778,1.65,4.632c-1.184,15.221,4.965,28.101,17.854,37.238c23.096,16.39,63.141,16.588,86.041,6.481   c37.216-16.423,53.711-51.964,57.224-68.471c1.488-6.952,3.733-16.269,5.373-23.051c1.078-4.374,2.596-8.615,4.299-12.788   c3.286-8.092,2.298-13.877,0.766-17.525c-0.016-0.051-0.004-0.103-0.021-0.154c-0.023-0.061-0.075-0.104-0.1-0.163   c-0.106-0.237-0.186-0.558-0.294-0.775c0,0-0.055-0.104-0.066-0.109c-0.144-0.282-0.445-0.417-0.604-0.689   c-0.303-0.415-0.615-0.785-0.991-1.13c-2.586-3.562-6.265-6.166-10.739-6.597l-2.322-0.226   c-10.436-1.019-20.717-4.368-29.728-9.684l-6.555-3.845c-1.112-0.786-27.703-19.034-63.978-7.985   C308.107,71.266,281.42,96.489,282.036,128.813z M455.22,113.856c-1.68,6.917-3.954,16.393-5.465,23.473   c-2.971,13.961-16.991,44.046-48.761,58.047c-18.803,8.305-52.809,8.293-71.542-4.995c-8.641-6.142-12.481-13.998-11.687-24.043   c0.153-1.939-0.049-3.842-0.415-5.703c4.209-12.68,11.313-17.208,11.772-17.472c35.286-20.797,71.611-29.496,90.129-32.837   c13.627-2.452,26.92-5.887,39.529-10.205l1.165-0.399C458.093,104.334,456.42,109.01,455.22,113.856z M363.521,69.801   c29.169-8.884,50.343,5.363,51.683,6.266l7.045,4.163c6.861,4.05,14.416,6.762,22.161,8.805   c-9.024,2.683-18.256,5.058-27.778,6.775c-19.484,3.511-57.732,12.685-94.746,34.5c-1.061,0.572-8.635,5.051-14.696,16.42   c-9.576-5.081-10.397-18.337-10.404-18.353C296.183,96.949,332.742,79.181,363.521,69.801z"
       id="path5" /><path
       d="M330.621,108.126c31.87-22.768,47.955-19.554,48.695-19.382c3.819,1.131,7.86-0.98,9.103-4.789   c1.27-3.859-0.846-8.026-4.725-9.297c-2.221-0.72-22.814-6.279-61.644,21.474c-2.88,2.053-3.833,5.785-2.491,8.903   c0.206,0.48,0.462,0.938,0.78,1.38C322.704,109.728,327.31,110.501,330.621,108.126z"
       id="path6" /></g></svg>
