<?xml version="1.0" encoding="UTF-8" standalone="no"?>
<svg
   viewBox="0 0 101 126.25"
   fill="none"
   x="0px"
   y="0px"
   version="1.1"
   id="svg8"
   sodipodi:docname="cutlet.svg"
   inkscape:version="1.3 (0e150ed6c4, 2023-07-21)"
   xmlns:inkscape="http://www.inkscape.org/namespaces/inkscape"
   xmlns:sodipodi="http://sodipodi.sourceforge.net/DTD/sodipodi-0.dtd"
   xmlns="http://www.w3.org/2000/svg"
   xmlns:svg="http://www.w3.org/2000/svg">
  <defs
     id="defs8" />
  <sodipodi:namedview
     id="namedview8"
     pagecolor="#505050"
     bordercolor="#eeeeee"
     borderopacity="1"
     inkscape:showpageshadow="0"
     inkscape:pageopacity="0"
     inkscape:pagecheckerboard="0"
     inkscape:deskcolor="#505050"
     inkscape:zoom="6.1544554"
     inkscape:cx="50.370013"
     inkscape:cy="62.962517"
     inkscape:window-width="1920"
     inkscape:window-height="991"
     inkscape:window-x="-9"
     inkscape:window-y="-9"
     inkscape:window-maximized="1"
     inkscape:current-layer="svg8" />
  <path
     style="fill:#000000;fill-opacity:1;fill-rule:evenodd;stroke:#ffffff;stroke-width:2;stroke-linejoin:round;stroke-opacity:1"
     id="path10"
     sodipodi:type="arc"
     sodipodi:cx="62.881275"
     sodipodi:cy="38.752415"
     sodipodi:rx="22.585264"
     sodipodi:ry="23.641409"
     sodipodi:start="0"
     sodipodi:end="6.2324303"
     sodipodi:open="true"
     sodipodi:arc-type="arc"
     d="M 85.466539,38.752415 A 22.585264,23.641409 0 0 1 63.167846,62.39192 22.585264,23.641409 0 0 1 40.303283,39.35231 22.585264,23.641409 0 0 1 62.021746,15.128132 22.585264,23.641409 0 0 1 85.437455,37.55301" />
  <path
     style="fill:#000000;fill-rule:evenodd;stroke:#ffedff;stroke-width:2.1132;stroke-linejoin:round;fill-opacity:1;stroke-opacity:1"
     id="path9"
     sodipodi:type="arc"
     sodipodi:cx="37.777512"
     sodipodi:cy="60.60651"
     sodipodi:rx="23.097351"
     sodipodi:ry="23.34107"
     sodipodi:start="0"
     sodipodi:end="6.2324303"
     sodipodi:open="true"
     sodipodi:arc-type="arc"
     d="M 60.874863,60.60651 A 23.097351,23.34107 0 0 1 38.07058,83.945701 23.097351,23.34107 0 0 1 14.687598,61.198785 23.097351,23.34107 0 0 1 36.898494,37.282349 23.097351,23.34107 0 0 1 60.845119,59.422343" />
  <path
     d="M36.8388 48.2114C37.7375 48.2114 38.4661 47.4829 38.4661 46.5842C38.4661 45.6855 37.7375 44.9569 36.8388 44.9569C35.9401 44.9569 35.2115 45.6855 35.2115 46.5842C35.2115 47.4829 35.9401 48.2114 36.8388 48.2114Z"
     fill="black"
     id="path1"
     style="fill:#ffffff" />
  <path
     d="M31.7641 49.8387C31.7641 50.7374 31.0355 51.466 30.1368 51.466C29.2381 51.466 28.5095 50.7374 28.5095 49.8387C28.5095 48.94 29.2381 48.2114 30.1368 48.2114C31.0355 48.2114 31.7641 48.94 31.7641 49.8387Z"
     fill="black"
     id="path2"
     style="fill:#ffffff" />
  <path
     d="M41.7246 53.0932C41.7246 53.9919 40.9961 54.7205 40.0974 54.7205C39.1986 54.7205 38.4701 53.9919 38.4701 53.0932C38.4701 52.1945 39.1986 51.4659 40.0974 51.4659C40.9961 51.4659 41.7246 52.1945 41.7246 53.0932Z"
     fill="black"
     id="path3"
     style="fill:#ffffff" />
  <path
     d="m 49.54118,49.565202 c 0,0.8987 -0.7285,1.6273 -1.6272,1.6273 -0.8988,0 -1.6273,-0.7286 -1.6273,-1.6273 0,-0.8987 0.7285,-1.6273 1.6273,-1.6273 0.8987,0 1.6272,0.7286 1.6272,1.6273 z"
     fill="black"
     id="path3-3"
     style="fill:#ffffff" />
  <path
     d="m 49.579468,56.43972 c 0,0.8987 -0.7285,1.6273 -1.6272,1.6273 -0.8988,0 -1.6273,-0.7286 -1.6273,-1.6273 0,-0.8987 0.7285,-1.6273 1.6273,-1.6273 0.8987,0 1.6272,0.7286 1.6272,1.6273 z"
     fill="black"
     id="path3-7"
     style="fill:#ffffff" />
  <path
     d="m 41.2545,59.6273 c 0,0.8987 -0.7285,1.6273 -1.6272,1.6273 C 38.7285,61.2546 38,60.526 38,59.6273 38,58.7286 38.7285,58 39.6273,58 c 0.8987,0 1.6272,0.7286 1.6272,1.6273 z"
     fill="black"
     id="path3-2"
     style="fill:#ffffff" />
  <path
     d="m 60.2545,35.6273 c 0,0.8987 -0.7285,1.6273 -1.6272,1.6273 C 57.7285,37.2546 57,36.526 57,35.6273 57,34.7286 57.7285,34 58.6273,34 c 0.8987,0 1.6272,0.7286 1.6272,1.6273 z"
     fill="black"
     id="path3-6"
     style="fill:#ffffff" />
  <path
     d="m 69.2545,38.6273 c 0,0.8987 -0.7285,1.6273 -1.6272,1.6273 C 66.7285,40.2546 66,39.526 66,38.6273 66,37.7286 66.7285,37 67.6273,37 c 0.8987,0 1.6272,0.7286 1.6272,1.6273 z"
     fill="black"
     id="path3-1"
     style="fill:#ffffff" />
  <path
     d="m 73.2545,27.6273 c 0,0.8987 -0.7285,1.6273 -1.6272,1.6273 C 70.7285,29.2546 70,28.526 70,27.6273 70,26.7286 70.7285,26 71.6273,26 c 0.8987,0 1.6272,0.7286 1.6272,1.6273 z"
     fill="black"
     id="path3-0"
     style="fill:#ffffff" />
  <path
     d="m 75.2545,33.6273 c 0,0.8987 -0.7285,1.6273 -1.6272,1.6273 C 72.7285,35.2546 72,34.526 72,33.6273 72,32.7286 72.7285,32 73.6273,32 c 0.8987,0 1.6272,0.7286 1.6272,1.6273 z"
     fill="black"
     id="path3-60"
     style="fill:#ffffff" />
  <path
     d="M61.0178 26.2215C61.9165 26.2215 62.6451 25.493 62.6451 24.5942C62.6451 23.6955 61.9165 22.967 61.0178 22.967C60.1191 22.967 59.3906 23.6955 59.3906 24.5942C59.3906 25.493 60.1191 26.2215 61.0178 26.2215Z"
     fill="black"
     id="path4"
     style="fill:#ffffff" />
  <path
     d="M55.9431 27.8488C55.9431 28.7475 55.2145 29.476 54.3158 29.476C53.4171 29.476 52.6885 28.7475 52.6885 27.8488C52.6885 26.95 53.4171 26.2215 54.3158 26.2215C55.2145 26.2215 55.9431 26.95 55.9431 27.8488Z"
     fill="black"
     id="path5"
     style="fill:#ffffff" />
  <path
     d="M65.9036 31.1033C65.9036 32.002 65.1751 32.7305 64.2764 32.7305C63.3777 32.7305 62.6491 32.002 62.6491 31.1033C62.6491 30.2046 63.3777 29.476 64.2764 29.476C65.1751 29.476 65.9036 30.2046 65.9036 31.1033Z"
     fill="black"
     id="path6"
     style="fill:#ffffff" />
</svg>
