<?xml version="1.0" encoding="UTF-8" standalone="no"?>
<svg
   version="1.1"
   viewBox="-5.0 -10.0 110.0 135.0"
   id="svg7"
   sodipodi:docname="noun-hotdog-6765920.svg"
   inkscape:version="1.3 (0e150ed6c4, 2023-07-21)"
   xmlns:inkscape="http://www.inkscape.org/namespaces/inkscape"
   xmlns:sodipodi="http://sodipodi.sourceforge.net/DTD/sodipodi-0.dtd"
   xmlns="http://www.w3.org/2000/svg"
   xmlns:svg="http://www.w3.org/2000/svg">
  <defs
     id="defs7" />
  <sodipodi:namedview
     id="namedview7"
     pagecolor="#505050"
     bordercolor="#eeeeee"
     borderopacity="1"
     inkscape:showpageshadow="0"
     inkscape:pageopacity="0"
     inkscape:pagecheckerboard="0"
     inkscape:deskcolor="#505050"
     inkscape:zoom="5.7555556"
     inkscape:cx="54.990347"
     inkscape:cy="67.5"
     inkscape:window-width="1920"
     inkscape:window-height="991"
     inkscape:window-x="-9"
     inkscape:window-y="-9"
     inkscape:window-maximized="1"
     inkscape:current-layer="svg7" />
  <g
     id="g6">
    <path
       d="m66.359 19.656c-3.0391 4.6758-6.332 9.1836-9.8203 13.535 1.4219-1.1992 3.125-2.0391 4.5234-3.2773 3.2695-2.625 3.9297-6.5781 5.2969-10.258z"
       id="path1" />
    <path
       d="m44.398 54.691c-1.8672 0.85938-3.8555 1.6016-5.3164 3.1094-3.7344 3.8984-3.5039 10.688-8.6094 13.426-2.9883 1.2383-6.3008 1.9414-8.6016 4.418-0.29297 0.26562-0.55469 0.5625-0.82031 0.85547 2.6016-1.4219 5.2852-2.7578 8.1914-3.4336 4.9297-0.78516 6.3516-2.3906 7.6211-7.1172 0.58203-2.0547 1.2617-4.1523 2.7266-5.7656 1.7656-2.1328 4.3828-3.0469 6.7461-4.3125 1.7812-1.0977 3.3906-2.4727 4.75-4.0625 3.9453-4.3867 3.332-11.062 7.0469-15.527 3.043-2.8242 5.4688-1.8438 8.1953-6.4375 1.0508-1.7812 2.1484-3.5742 2.7344-5.5703 0.62109-2.8438 0.89453-5.832 2.3555-8.4141-4.6641 3.4102-3.8477 10.141-7.6758 14.176-1.6211 1.9766-3.9141 3.1602-5.9219 4.6797-2.8242 2.5391-3.1836 6.6328-4.2773 10.062-1.1875 4.625-4.8867 8.0273-9.1445 9.9141z"
       id="path2" />
    <path
       d="m70.082 13.629c-0.32031 0.54688-0.64844 1.0898-0.97656 1.6328 0.48828-0.49609 1.0156-0.95703 1.5781-1.3711 1.1914-0.73438 4.1523-3.2344 4.4727-0.59766-0.55469 1.6953-2.0391 2.9883-2.668 4.6875-1.1445 2.5742-1.1328 5.4531-2.0547 8.0859-0.10156 0.23438-0.20312 0.46484-0.30859 0.69922 0.52344-0.66797 1.0586-1.3242 1.6172-1.9648 3.125-3.582 6.5938-7.8594 11.559-8.625 1.0664-0.12891 2.1523-0.0625 3.207 0.16797 0.27734-1.8711 0.14844-3.7695-0.63672-5.5664-1.7891-3.2422-4.3594-4.2969-6.9648-3.9688 0.003906 0.007812 0.011719 0.015625 0.015625 0.023437-0.066406-0.007812-0.12891-0.003906-0.19531-0.003906-3.418 0.51172-6.8594 3.3789-8.6445 6.8008z"
       id="path3" />
    <path
       d="m36.137 52.527c8.8008-8.25 16.66-17.48 23.91-27.102 2.8438-3.7734 5.3594-7.793 7.7695-11.855 1.7461-2.8633 3.5977-5.957 6.6914-7.5156 0.17578-0.10547 0.35156-0.20313 0.52734-0.29297-4.1211-2.4492-8.4648-0.32812-11.734 2.5586-6.1211 5.1094-10.715 11.656-14.895 18.383-0.023438 0.035156-0.050781 0.066406-0.074219 0.10156-0.12109 0.17578-0.24609 0.34766-0.36719 0.52344-0.10938 0.15234-0.21875 0.30078-0.32031 0.45312-0.10938 0.16016-0.21875 0.32422-0.31641 0.49219-0.10156 0.17969-0.20312 0.35547-0.30078 0.53516-0.17969 0.31641-0.34766 0.63672-0.53125 0.95312 0-0.003907 0.003906-0.003907 0.003906-0.007813-0.14062 0.23047-0.28125 0.46484-0.41797 0.69922-0.12109 0.21484-0.24219 0.43359-0.36328 0.64453-0.039062 0.0625-0.082031 0.125-0.125 0.1875-0.20312 0.30859-0.40234 0.62109-0.60938 0.92578-0.21484 0.3125-0.43359 0.62109-0.64062 0.9375-0.10547 0.15625-0.21484 0.31641-0.32422 0.47266-0.10156 0.14062-0.20312 0.28516-0.29688 0.43359-0.070312 0.10937-0.14062 0.21875-0.20312 0.33203-5.9258 7.9141-12.348 15.703-20.551 21.348-4.9141 3.8203-11.27 6.2461-14.746 11.633-2.0039 3.8086 0.28516 6.9102 3.5742 8.75 5.1328-9.3086 17.074-16.629 24.34-23.59z"
       id="path4" />
    <path
       d="m88.281 19.094c-0.13672-0.070312-0.27734-0.14062-0.41406-0.20312-0.14063-0.066406-0.28516-0.125-0.42578-0.17969-0.054687-0.023438-0.10938-0.039063-0.16797-0.058594-0.089844-0.03125-0.17578-0.0625-0.26172-0.089844-0.058594-0.019531-0.11719-0.035156-0.17578-0.050781-0.085938-0.023438-0.17188-0.050781-0.25781-0.070313-0.054687-0.015625-0.11328-0.027344-0.16797-0.039062-0.089844-0.019532-0.17578-0.039063-0.26562-0.054688-3.5781-0.68359-6.9531 1.4727-9.5273 4.1172-5.7148 5.5625-9.7969 12.434-13.457 19.461-0.019531 0.035157-0.042968 0.070313-0.0625 0.10547-0.10938 0.18359-0.21875 0.36719-0.32812 0.54688-0.09375 0.16016-0.19531 0.31641-0.28516 0.47656-0.097656 0.17187-0.19531 0.33984-0.27734 0.51562-0.089843 0.1875-0.17578 0.37109-0.26172 0.55859-0.15234 0.32812-0.29687 0.66016-0.45312 0.98438-0.12109 0.24219-0.24609 0.48438-0.36328 0.72656-0.10547 0.22266-0.20703 0.44922-0.3125 0.67188-0.035156 0.066406-0.074218 0.12891-0.10938 0.19531-0.17969 0.32031-0.35156 0.64844-0.53906 0.96875-0.1875 0.32812-0.38281 0.65234-0.56641 0.98047-0.09375 0.16406-0.19141 0.33203-0.28906 0.49609-0.089844 0.14844-0.17969 0.30078-0.26562 0.45312-0.0625 0.11328-0.12109 0.22656-0.17578 0.34375-5.3086 8.3438-11.117 16.594-18.871 22.844-4.6094 4.1836-10.766 7.0859-13.82 12.719-0.38672 0.89062-0.55078 1.7266-0.54297 2.5078 0 0.13672 0.003906 0.27344 0.015625 0.40625 0.007812 0.066407 0.015625 0.13281 0.023437 0.19922 0.015625 0.11719 0.03125 0.23438 0.054688 0.35156 0.011719 0.066407 0.027343 0.13281 0.042969 0.19922 0.027343 0.11328 0.058593 0.22656 0.09375 0.33594 0.019531 0.0625 0.039062 0.12109 0.058593 0.17969 0.042969 0.11719 0.089844 0.23438 0.14062 0.35156 1.5938 3.5938 7.1836 5.5234 11.059 5.2461 6.3594-0.097656 12.41-2.4375 18.027-5.25 7.2305-3.457 13.512-8.6523 18.48-14.926 10.57-13.051 18.609-29.031 18.891-46.094 0.003906-3.6836-0.48438-8.1914-4.2422-9.9258z"
       id="path5" />
    <path
       d="m29.867 78.156c4.7656-3.8438 9.8516-7.332 14.137-11.734 5.3281-5.6094 9.832-12.027 13.875-18.586 2.4062-4.4531 4.6172-9.0586 7.1602-13.449-0.19141 0.16406-0.39062 0.32422-0.59375 0.47656-1.9531 1.4062-4.6875 1.7617-5.8789 4.0859-3.3242 7.125-2.3477 12.207-9.6914 17.637-2.4961 1.9883-5.8984 2.5703-7.9883 5.0977-2.6602 3.0898-2.1914 7.8203-5.0703 10.777-2.2305 2.3555-5.9062 2.1758-8.6836 3.3672-2.8828 0.97656-5.375 2.9336-8.2305 3.8828-0.28906 0.25391-0.72656 0.22266-1.0234 0-1.7969-1.1641 2.4531-5.3906 3.4727-6.2617 4.4688-4.1953 8.9492-1.9805 11.695-8.0977 1.2695-2.418 1.8672-5.1836 3.4258-7.4531 3.7852-5.6484 11.219-4.4688 14.621-11.891 1.4688-3.3906 1.7578-7.3398 3.6016-10.555-5.1523 6.2344-10.691 12.16-16.449 17.809-5.832 5.543-12.508 10.129-18.223 15.801-4.3516 4.3359-9.6953 9.8906-8.3125 16.562 1.5547 5.6641 7.3203 6.457 11.898 3.6797 0.10547-0.066407 0.20703-0.13672 0.3125-0.20703-0.070313-0.35938-0.11719-0.73047-0.13281-1.1133-0.10156-4.1094 3.1445-7.3555 6.0781-9.8281z"
       id="path6" />
  </g>
</svg>
