<?xml version="1.0" encoding="UTF-8" standalone="no"?>
<svg
   version="1.1"
   viewBox="-5.0 -10.0 110.0 135.0"
   id="svg2"
   sodipodi:docname="noun-noodles-6956288.svg"
   inkscape:version="1.3 (0e150ed6c4, 2023-07-21)"
   xmlns:inkscape="http://www.inkscape.org/namespaces/inkscape"
   xmlns:sodipodi="http://sodipodi.sourceforge.net/DTD/sodipodi-0.dtd"
   xmlns="http://www.w3.org/2000/svg"
   xmlns:svg="http://www.w3.org/2000/svg">
  <defs
     id="defs2" />
  <sodipodi:namedview
     id="namedview2"
     pagecolor="#505050"
     bordercolor="#eeeeee"
     borderopacity="1"
     inkscape:showpageshadow="0"
     inkscape:pageopacity="0"
     inkscape:pagecheckerboard="0"
     inkscape:deskcolor="#505050"
     inkscape:zoom="5.7555556"
     inkscape:cx="54.990347"
     inkscape:cy="67.5"
     inkscape:window-width="1920"
     inkscape:window-height="991"
     inkscape:window-x="-9"
     inkscape:window-y="-9"
     inkscape:window-maximized="1"
     inkscape:current-layer="svg2" />
  <path
     d="m27.82 38.5 3.1289-0.62891c0.38281-0.92578 0.88672-1.8633 1.5117-2.8125 0.51172-0.78125 1.293-1.2812 2.1445-1.4609 0.85156-0.17969 1.7656-0.03125 2.5469 0.48047s1.2812 1.293 1.4609 2.1445c0.007813 0.035156 0.015625 0.070313 0.019531 0.10547l1.4961-0.30078c0.34766-0.96875 0.80859-1.9492 1.3789-2.9375v-0.007813l0.19531-0.32812c0.48047-0.80078 1.2461-1.3281 2.0898-1.5391 0.71094-0.17578 1.4805-0.12109 2.1836 0.1875h0.23828l0.30469 0.30469c0.71094 0.48438 1.1797 1.1992 1.375 1.9844 0.0625 0.24609 0.09375 0.49609 0.097657 0.75391l3.6562-0.73437c0.37891-0.84766 0.83594-1.7109 1.375-2.5781 0.49219-0.79687 1.2656-1.3125 2.1094-1.5117 0.84375-0.19531 1.7656-0.070313 2.5586 0.42188 0.79688 0.49219 1.3125 1.2656 1.5117 2.1094l0.007813 0.039062 28.102-5.6445c1.1484-0.23047 2.2852 0.027344 3.1914 0.62891 0.90625 0.60547 1.5859 1.5547 1.8164 2.707 0.23047 1.1484-0.027343 2.2852-0.62891 3.1914-0.60547 0.90625-1.5547 1.5859-2.707 1.8164l-31.465 6.3203c0.21875 0.48047 0.53125 0.95703 0.94141 1.4258 0.98828 1.1367 1.7344 2.3438 2.2383 3.6289 0.50781 1.2969 0.76172 2.6523 0.76172 4.0664 0 0.94922-0.12109 1.9297-0.36719 2.9453-0.085938 0.35547-0.18359 0.71094-0.30078 1.0625h7.0117c0.73437 0 1.3359 0.58203 1.3633 1.3086 0.10547 0.83984 0.1875 1.668 0.23828 2.4805 0.058594 0.88672 0.085938 1.7578 0.085938 2.6094 0 5.6289-1.1484 10.953-3.1875 15.68-1.6445 3.8086-3.8672 7.2305-6.543 10.117h3.6094c0.75391 0 1.3633 0.60938 1.3633 1.3633v2.8672c0 1.1641-0.47656 2.2227-1.2422 2.9883-0.76563 0.76562-1.8242 1.2422-2.9883 1.2422l-43.922 0.003906c-1.1641 0-2.2227-0.47656-2.9883-1.2422-0.76562-0.76562-1.2422-1.8242-1.2422-2.9883v-2.8672c0-0.75391 0.60938-1.3633 1.3633-1.3633h3.6094c-2.6758-2.8867-4.9023-6.3086-6.543-10.117-2.0391-4.7266-3.1875-10.051-3.1875-15.68 0-0.85156 0.027344-1.7227 0.085938-2.6094 0.054687-0.84766 0.14062-1.7148 0.25391-2.5977 0.085937-0.6875 0.67188-1.1875 1.3477-1.1875v-0.003906h12.832c0.23047-0.38281 0.41797-0.74609 0.55469-1.0898 0.17969-0.44922 0.26562-0.85547 0.26562-1.2188 0-0.27734-0.0625-0.55078-0.1875-0.81641v-0.003906c-0.14453-0.30469-0.375-0.61719-0.69141-0.9375-0.53516-0.53516-0.99609-1.0898-1.3828-1.6562l-4.7461 0.95312c-1.1484 0.23047-2.2852-0.027344-3.1914-0.62891-0.90625-0.60547-1.5859-1.5547-1.8164-2.7031-0.23047-1.1484 0.027343-2.2852 0.62891-3.1914 0.60547-0.90625 1.5547-1.5859 2.7031-1.8164l5.6445-1.1328c0.42578-1.0508 1.0234-2.125 1.8047-3.2227 0.54297-0.76172 1.3438-1.2344 2.1953-1.3789 0.85156-0.14453 1.7617 0.039062 2.5234 0.58203s1.2344 1.3438 1.3789 2.1953c0.011719 0.074218 0.023437 0.15234 0.03125 0.22656zm3.2461 8.0234-2.8828 0.57812c0.31641 0.46484 0.58203 0.94531 0.80078 1.4375 0.48828 1.1055 0.73438 2.2695 0.73438 3.4883 0 0.69141-0.085938 1.3945-0.25 2.1133-0.015625 0.066406-0.03125 0.13281-0.046875 0.19531h3.2148c0.37109-0.59375 0.64844-1.1484 0.83984-1.668 0.19922-0.54297 0.30078-1.043 0.30078-1.5 0-0.75391-0.32422-1.4805-0.97266-2.1836-0.71484-0.77734-1.2969-1.5977-1.7344-2.4609zm19.734-3.9648-3.3906 0.67969c0.78125 0.97266 1.375 1.9961 1.7852 3.0703 0.45313 1.1914 0.67969 2.4336 0.67969 3.7305 0 1.3906-0.26953 2.8242-0.80469 4.2969h4.3594c0.36719-0.66016 0.65625-1.293 0.86328-1.9023 0.25781-0.75 0.38672-1.4531 0.38672-2.1055 0-0.57422-0.10547-1.1211-0.31641-1.6406-0.21875-0.53906-0.55469-1.0742-1.0156-1.6016-0.98828-1.1367-1.7344-2.3438-2.2383-3.6289-0.11719-0.29688-0.21875-0.59766-0.30859-0.90234zm-10.508 2.1133-1.9375 0.39062c0.63672 0.79688 1.1367 1.6367 1.4961 2.5156 0.47266 1.1484 0.71094 2.3477 0.71094 3.5938 0 0.83594-0.10938 1.6875-0.32422 2.5547-0.050781 0.20313-0.10938 0.40625-0.17188 0.61328h1.4883c0.046874-0.09375 0.09375-0.18359 0.14453-0.26953 0.48047-0.79687 0.83594-1.5352 1.0625-2.2227 0.21484-0.64062 0.32031-1.2383 0.32031-1.8047 0-0.48047-0.085937-0.9375-0.25391-1.3672-0.17578-0.44922-0.44531-0.89062-0.8125-1.3281-0.72266-0.85156-1.2969-1.7461-1.7266-2.6797zm-28.594-14.477c-1.1055 0.39453-1.9492 1.2031-2.4219 2.1875-0.46875 0.98047-0.5625 2.1406-0.17188 3.2422v0.003906c0.39453 1.1055 1.2031 1.9492 2.1914 2.4219 0.98047 0.46875 2.1445 0.5625 3.2461 0.17188l70.227-24.953c1.1055-0.39453 1.9492-1.2031 2.4219-2.1875 0.46875-0.98047 0.5625-2.1406 0.17188-3.2422v-0.003906c-0.39453-1.1055-1.2031-1.9492-2.1914-2.4219-0.98047-0.46875-2.1445-0.5625-3.2461-0.17187zm71.133-22.383-70.23 24.949c-0.39453 0.14062-0.69531 0.42969-0.86328 0.78125-0.16016 0.33984-0.19922 0.73828-0.085937 1.1172 0.015625 0.039063 0.027344 0.078125 0.039062 0.11719 0.14844 0.36719 0.42578 0.64844 0.76172 0.80859 0.35938 0.17187 0.78125 0.20312 1.1797 0.0625l70.23-24.945c0.39453-0.14062 0.69531-0.42969 0.86328-0.78125 0.16016-0.33984 0.19922-0.73828 0.085938-1.1172-0.015625-0.039063-0.027344-0.078126-0.039062-0.11719-0.14844-0.36719-0.42578-0.64844-0.76172-0.80859-0.35938-0.17188-0.78125-0.20312-1.1797-0.0625zm-52.703 32.992-3.3672 0.67578c-0.46875 0.78906-0.71484 1.5-0.73438 2.125-0.011719 0.38672 0.070312 0.75781 0.24609 1.1094l3.9102-0.78516c-0.10156-0.5625-0.15625-1.1328-0.15625-1.7188 0-0.46484 0.03125-0.93359 0.10156-1.4062zm12.352-3.2422c-0.003907 0.015625-0.011719 0.03125-0.015625 0.050781-0.26562 0.91016-0.39844 1.8008-0.39844 2.6719 0 0.96875 0.16406 1.8906 0.5 2.7617 0.33984 0.89062 0.85156 1.7383 1.5352 2.5469 0.55859 0.66016 0.98438 1.3633 1.2734 2.1055 0.29688 0.76172 0.44141 1.543 0.44141 2.3477 0 0.83984-0.15625 1.7305-0.46875 2.6641-0.17969 0.53125-0.40625 1.0742-0.68359 1.6289h1.4805c0.67188-1.5 1.0078-2.9336 1.0078-4.2969 0-0.96875-0.16406-1.8906-0.5-2.7617-0.33984-0.89062-0.85156-1.7383-1.5352-2.5469-0.55859-0.66016-0.98438-1.3633-1.2734-2.1055-0.29688-0.76172-0.44141-1.543-0.44141-2.3477 0-0.83984 0.15625-1.7305 0.46875-2.6641 0.29688-0.89063 0.73438-1.8125 1.3086-2.7656v-0.003906c0.097656-0.15625 0.11719-0.33984 0.078124-0.50391-0.039062-0.16406-0.14453-0.3125-0.30078-0.40625-0.16016-0.097656-0.33984-0.11719-0.50781-0.078125-0.16016 0.039063-0.30859 0.14453-0.40625 0.30078l-0.003907 0.003906c-0.67187 1.1172-1.1719 2.1875-1.4961 3.2109-0.019531 0.0625-0.039063 0.125-0.058594 0.1875zm-3.0586 1.375-1.5938 0.32031c-0.30469 0.51563-0.54297 1-0.71094 1.4531-0.19922 0.54297-0.30078 1.043-0.30078 1.5 0 0.12891 0.007813 0.25391 0.027344 0.37891l2.6445-0.53125c-0.097656-0.58203-0.14844-1.1758-0.14844-1.7812 0-0.44141 0.027344-0.89062 0.082031-1.3438zm11.234-2.2578-3.7891 0.76172c-0.17188 0.35938-0.3125 0.70312-0.42188 1.0352-0.21484 0.64063-0.32031 1.2383-0.32031 1.8047 0 0.14844 0.007812 0.29688 0.023438 0.44141l4.207-0.84375c-0.007813-0.16016-0.011719-0.32422-0.011719-0.48438 0-0.88672 0.10156-1.7891 0.30859-2.7109zm6.5547 1.8203 31.246-6.2773c0.41016-0.082031 0.75-0.32812 0.96875-0.65625 0.22266-0.33203 0.31641-0.74219 0.23438-1.1562-0.082031-0.41016-0.32812-0.75-0.65625-0.96875-0.33203-0.22266-0.74219-0.31641-1.1562-0.23438l-29.297 5.8867c-0.44531 0.76172-0.78906 1.4922-1.0273 2.1836-0.14453 0.42188-0.25 0.83203-0.3125 1.2227zm-38.047 4.5078-4.3828 0.87891c-0.41016 0.082031-0.75 0.32812-0.96875 0.65625-0.22266 0.33203-0.31641 0.74219-0.23438 1.1562 0.082031 0.41016 0.32812 0.75 0.65625 0.96875 0.33203 0.22266 0.74219 0.31641 1.1562 0.23438l4.0664-0.81641c-0.20312-0.69922-0.3125-1.4141-0.32422-2.1562-0.007812-0.30469 0.007813-0.61328 0.03125-0.92188zm38.746 11.332c0.23047-0.57812 0.41016-1.1445 0.54297-1.6914 0.1875-0.77734 0.28125-1.5508 0.28125-2.3164 0-1.082-0.19141-2.1055-0.57031-3.0781-0.38672-0.98438-0.97266-1.9258-1.7578-2.8281-0.65234-0.74609-1.1445-1.5391-1.4844-2.3789-0.34375-0.85547-0.51562-1.7422-0.51562-2.6523 0-0.95312 0.17969-1.9531 0.53906-3 0.33984-0.99219 0.84766-2.0352 1.5234-3.1211 0.097656-0.15625 0.12109-0.33594 0.082031-0.50391-0.039062-0.16406-0.14062-0.31641-0.29688-0.41406-0.15625-0.097657-0.33594-0.12109-0.50391-0.082031-0.16406 0.039062-0.31641 0.14062-0.41406 0.29687-0.76563 1.2344-1.3398 2.4297-1.7148 3.5781-0.36719 1.1172-0.55078 2.1953-0.55078 3.2422 0 1.082 0.19141 2.1055 0.57031 3.0781 0.38672 0.98438 0.97266 1.9258 1.7578 2.8281 0.65234 0.74609 1.1445 1.5391 1.4844 2.3789 0.34375 0.85547 0.51563 1.7422 0.51563 2.6523 0 0.94531-0.17969 1.9414-0.53516 2.9805-0.11328 0.33594-0.25 0.67969-0.40234 1.0273h1.4453zm-20.73 0c0.17187-0.42969 0.30859-0.85547 0.41406-1.2734 0.16016-0.64062 0.24219-1.2734 0.24219-1.8945 0-0.90625-0.16406-1.7578-0.49609-2.5625-0.33984-0.82031-0.85547-1.6094-1.5547-2.3672-0.55078-0.59766-0.96875-1.2266-1.25-1.8867-0.29688-0.69141-0.44531-1.4062-0.44531-2.1445 0-0.77344 0.15625-1.5859 0.46875-2.4375 0.29297-0.79688 0.72656-1.6328 1.293-2.4961 0.10156-0.15625 0.13281-0.33594 0.097657-0.50391-0.035157-0.16406-0.13281-0.31641-0.28906-0.41797-0.15625-0.10156-0.33594-0.13281-0.50391-0.097657-0.16406 0.035157-0.31641 0.13281-0.41797 0.28906-0.67188 1.0234-1.1758 2.0195-1.5078 2.9805-0.31641 0.92578-0.47656 1.8164-0.47656 2.6836 0 0.90625 0.16406 1.7578 0.49609 2.5625 0.33984 0.82031 0.85547 1.6094 1.5547 2.3672 1.1328 1.2266 1.6953 2.5703 1.6953 4.0273 0 0.77344-0.15625 1.5859-0.46875 2.4375-0.089844 0.24219-0.19141 0.48438-0.30469 0.73047h1.4531zm-10.598 0c0.09375-0.27344 0.17188-0.53906 0.23438-0.80469 0.11719-0.50391 0.17578-1.0078 0.17578-1.5078 0-0.83984-0.16797-1.6406-0.5-2.3906-0.34375-0.77734-0.86719-1.5195-1.5703-2.2227-1.125-1.1289-1.6602-2.4258-1.6133-3.8945 0.046875-1.3516 0.60547-2.7852 1.6836-4.3047 0.10547-0.14844 0.14062-0.32812 0.11328-0.49609-0.027344-0.16797-0.12109-0.32422-0.26953-0.42969-0.14844-0.10547-0.32813-0.14062-0.49609-0.11328-0.16797 0.027344-0.32422 0.12109-0.42969 0.26953-1.4062 1.9844-2.0938 3.7969-2.0625 5.4414 0.027344 1.5742 0.73828 3.0625 2.1328 4.4648 0.53516 0.53516 0.94141 1.1016 1.2227 1.6992h0.003906c0.30078 0.64062 0.45312 1.3008 0.45312 1.9766 0 0.70703-0.15234 1.4453-0.46094 2.2227-0.011719 0.03125-0.023438 0.058594-0.035157 0.089844zm-0.18359 27.738c-1.0977-0.84766-2.1172-1.8086-3.0547-2.8633-0.9375-1.0586-1.7969-2.2227-2.5625-3.4766-0.39062-0.64062-1.2266-0.84375-1.8711-0.45312-0.64062 0.39062-0.84375 1.2266-0.45312 1.8711 0.84375 1.3789 1.8008 2.6719 2.8516 3.8594 1.0547 1.1875 2.2031 2.2656 3.4297 3.2148 0.59375 0.46094 1.4492 0.34766 1.9062-0.24609 0.46094-0.59375 0.34766-1.4492-0.24609-1.9062zm-7.5039-10.074-0.042969-0.10938c-0.007812-0.019531-0.019531-0.042969-0.027343-0.0625l-0.015625-0.039062c-0.27734-0.69531-1.0703-1.0352-1.7695-0.75781-0.69531 0.27734-1.0352 1.0703-0.75781 1.7695l0.015625 0.039062c0.007813 0.023438 0.015625 0.050781 0.027344 0.074219l0.042969 0.10938c0.28125 0.69531 1.0781 1.0312 1.7734 0.75s1.0312-1.0781 0.75-1.7734zm-1.2734-3.9531c-0.25391-1.0508-0.44531-2.1523-0.58203-3.2969-0.12891-1.0977-0.19531-2.2266-0.19531-3.3828 0-0.75391-0.60938-1.3633-1.3633-1.3633-0.75391 0-1.3633 0.60938-1.3633 1.3633 0 1.2422 0.074218 2.4727 0.21484 3.6914 0.14062 1.2148 0.35938 2.4219 0.64453 3.6133 0.17578 0.73047 0.90625 1.1797 1.6367 1.0078 0.73047-0.17578 1.1797-0.90625 1.0078-1.6367zm44.391 21.215h-46.934v1.5039c0 0.41016 0.17188 0.78906 0.44141 1.0625 0.27344 0.27344 0.64844 0.44141 1.0625 0.44141h43.926c0.41016 0 0.78906-0.17188 1.0625-0.44141 0.27344-0.27344 0.44141-0.64844 0.44141-1.0625z"
     fill-rule="evenodd"
     id="path1" />
</svg>
