<?xml version="1.0" encoding="UTF-8" standalone="no"?>
<svg
   version="1.1"
   viewBox="-5.0 -10.0 110.0 135.0"
   id="svg3"
   sodipodi:docname="noun-macaroni-6914881.svg"
   inkscape:version="1.3 (0e150ed6c4, 2023-07-21)"
   xmlns:inkscape="http://www.inkscape.org/namespaces/inkscape"
   xmlns:sodipodi="http://sodipodi.sourceforge.net/DTD/sodipodi-0.dtd"
   xmlns="http://www.w3.org/2000/svg"
   xmlns:svg="http://www.w3.org/2000/svg">
  <defs
     id="defs3" />
  <sodipodi:namedview
     id="namedview3"
     pagecolor="#505050"
     bordercolor="#eeeeee"
     borderopacity="1"
     inkscape:showpageshadow="0"
     inkscape:pageopacity="0"
     inkscape:pagecheckerboard="0"
     inkscape:deskcolor="#505050"
     inkscape:zoom="5.7555556"
     inkscape:cx="54.990347"
     inkscape:cy="67.5"
     inkscape:window-width="1920"
     inkscape:window-height="991"
     inkscape:window-x="-9"
     inkscape:window-y="-9"
     inkscape:window-maximized="1"
     inkscape:current-layer="svg3" />
  <g
     id="g2">
    <path
       d="m35.828 42.559c1.5781 0 3.0586 0.51172 4.3203 1.4414 0.53906 1.0117 1.4414 1.6797 2.2383 2 0.35156 0.17188 0.64062 0.23047 0.82812 0.26953l0.10938 0.019531c0.21094 0.058594 0.35156 0.10156 0.46875 0.14063l0.28125 0.089843s0.078125 0.03125 0.14844 0.058594c0.070313 0.039063 0.12891 0.089844 0.17188 0.12109 0.14844 0.12109 0.28906 0.25 0.44141 0.37891 0.69922 0.62109 1.6602 1.4688 3.0391 1.5508h0.21875c1.1602 0 2.0898-0.58984 2.7891-1.0195 0.30078-0.19141 0.62891-0.39844 0.80859-0.44922 0.12891-0.039062 0.53906-0.03125 0.80859-0.03125 0.87109 0.011719 2.0781 0.03125 3.1602-0.69141 1.0898-0.71875 1.5312-1.8398 1.8594-2.6602 0.10156-0.25 0.25-0.62891 0.32812-0.73047 0.12109-0.14844 0.44922-0.37891 0.73047-0.58984 0.71094-0.5 1.6914-1.1914 2.0898-2.3906 0.44922-1.3086 0.039062-2.5195-0.26172-3.4102-0.10156-0.28125-0.21094-0.62891-0.23047-0.78906-0.019531-0.17188 0.03125-0.51953 0.070313-0.82031 0.12891-0.96875 0.30078-2.3008-0.51172-3.5195-0.71875-1.0898-1.8281-1.4883-2.7188-1.75-5.5-5.8008-13.18-9.1211-21.18-9.1211-16.109 0-29.219 13.109-29.219 29.219 0 8.3984 3.6289 16.398 9.9492 21.961 0.14844 0.12891 0.32031 0.23047 0.5 0.30859 0.070313 0.12109 0.14062 0.26172 0.19922 0.39062 0.44922 0.89062 1.0703 2.1211 2.4805 2.6719 0.44922 0.17188 0.87891 0.23828 1.3008 0.23828 0.87891 0 1.6719-0.30078 2.3086-0.53906 0.30078-0.10938 0.64844-0.23828 0.82031-0.26953 0.16016-0.019531 0.53906 0.03125 0.83984 0.070312 0.94922 0.12109 2.25 0.28906 3.4688-0.46094 1.1016-0.67188 1.5586-1.8008 1.8906-2.6289 0.12891-0.32031 0.28906-0.71875 0.42188-0.87891 0.089844-0.10938 0.44141-0.33984 0.67188-0.48828 0.75-0.48828 1.7812-1.1719 2.2695-2.3984 0.48047-1.2383 0.17969-2.4414-0.039062-3.3086-0.070313-0.26953-0.17188-0.67188-0.17188-0.82031 0.011718-0.19922 0.16016-0.58984 0.28125-0.91016 0.30859-0.83984 0.73828-1.9883 0.39062-3.2109-0.26953-1-0.92188-1.6484-1.3906-2.0508-0.23047-0.19922-0.48828-0.39062-0.73828-0.57031l-0.21094-0.14844c-0.14062-0.10156-0.26953-0.19141-0.42969-0.32031-0.050782-0.039063-0.10938-0.089844-0.12891-0.12109-0.12109-0.14844-0.28906-0.48047-0.44141-0.76953-0.10156-0.19922-0.19922-0.39844-0.30078-0.57812-0.17969-0.32812-0.46094-0.78125-0.85938-1.1914-0.76953-1.1797-1.1914-2.5508-1.1914-3.9805 0-4.0508 3.2891-7.3516 7.3516-7.3516zm-14.102 9.1406c0-8.5195 7.0312-15.449 15.672-15.449 0.64062 0 1.2617 0.050781 1.8789 0.12109v0.019531c-0.21875 1.0781 0.078125 2.0703 0.33984 2.8281-1.2109-0.42969-2.4883-0.66016-3.7891-0.66016-6.2617 0-11.352 5.0898-11.352 11.352 0 1.1289 0.17188 2.25 0.48828 3.3086-0.070313 0.03125-0.14844 0.050781-0.21875 0.078125-0.30078 0.10938-0.64062 0.23828-0.82031 0.26172-0.16016 0.019531-0.53906-0.03125-0.83984-0.070313-0.37891-0.050781-0.80859-0.10156-1.2695-0.10156-0.058594-0.55859-0.10156-1.1211-0.10156-1.6914zm20.84-19.469c-0.10156 0.25-0.25 0.62891-0.33984 0.73828-0.12109 0.14844-0.44141 0.37891-0.71875 0.57812-0.058593 0.039063-0.10937 0.078125-0.16016 0.12109-1.2812-0.28125-2.6016-0.42188-3.9414-0.42188-10.301 0-18.672 8.2812-18.672 18.449 0 0.94922 0.078125 1.8906 0.21875 2.8086-0.62109 0.62891-0.94922 1.4219-1.1992 2.0508-0.62891-1.9609-0.96875-4.0117-0.96875-6.1289 0-11.07 9-20.07 20.07-20.07 2.1094 0 4.1484 0.32812 6.1094 0.96094-0.16016 0.32031-0.28125 0.62891-0.39844 0.91016zm13.699 6.9883c-0.48047 0.33984-1.0703 0.76172-1.5391 1.3516-0.46094 0.57031-0.71094 1.1992-0.92969 1.7617-0.10938 0.28125-0.28125 0.71094-0.30859 0.76953-0.14062 0.050782-0.60938 0.050782-0.92188 0.039063-0.60156-0.011719-1.2695-0.019531-1.9805 0.17969-0.73047 0.21094-1.3203 0.57813-1.8281 0.91016-0.19141 0.12109-0.46875 0.28906-0.64062 0.37891-0.17188-0.10938-0.44141-0.35156-0.62891-0.51953-0.21094-0.17969-0.41016-0.35938-0.64062-0.55078-0.23047-0.17187-0.5-0.37109-0.80078-0.51953-0.25-0.12891-0.51953-0.23828-0.80859-0.32812l-0.21875-0.070312c-0.16016-0.050782-0.32812-0.10156-0.57812-0.17969-0.12891-0.039062-0.25-0.058594-0.39844-0.10156-0.050781-0.019532-0.10938-0.050782-0.14062-0.058594-0.050782-0.019531-0.12109-0.070312-0.17188-0.12109 0-0.19922 0.039062-0.46875 0.070312-0.69922 0-0.058594 0.011719-0.12109 0.019531-0.17969 0.03125-0.19922 0.058594-0.41016 0.070313-0.62109v-0.19922c0-0.21094 0.019531-0.42188 0-0.64063v-0.039062-0.019531-0.03125c-0.070313-1.0312-0.33984-1.8008-0.51953-2.3086-0.019532-0.070313-0.050782-0.14844-0.078125-0.21875 0 0 0.011719 0 0.019531-0.019531 0.050781-0.039063 0.10938-0.089844 0.19922-0.14844 0.10938-0.078125 0.21875-0.16016 0.33984-0.23828 0.5-0.35156 1.0586-0.75 1.5312-1.3398 0.46094-0.57031 0.71094-1.2109 0.92969-1.7695 0.10938-0.28906 0.28906-0.71875 0.33984-0.78125 0.19141-0.039062 0.55859-0.039062 0.87891-0.03125h0.17188 0.28906c0.48047 0 0.98828-0.039062 1.5195-0.19141 0.71875-0.21094 1.3086-0.57812 1.8281-0.89844 0.19922-0.12109 0.46875-0.28906 0.64062-0.37891 0.17188 0.10938 0.44141 0.35156 0.62891 0.51953 0.41016 0.35938 0.85938 0.76172 1.4414 1.0586 0.39844 0.21094 0.85156 0.37109 1.3594 0.5l0.25 0.070313c0.21875 0.058593 0.53125 0.14844 0.71094 0.21875 0 0.19922-0.050782 0.51953-0.078125 0.75-0.070313 0.51172-0.14062 1.0781-0.089844 1.6992 0.058594 0.64062 0.26172 1.2188 0.42969 1.7305 0.078126 0.23828 0.19922 0.58984 0.23828 0.78906-0.14062 0.12891-0.41016 0.32031-0.60156 0.44922zm-20.441-14.531c4.7188 0 9.3203 1.3398 13.27 3.7891-0.011719 0-0.019531 0.011719-0.039062 0.019532-0.12109 0.070312-0.23047 0.14062-0.33984 0.21094-0.019532 0-0.03125 0.019531-0.039063 0.019531-0.12109 0.058594-0.23047 0.12109-0.30078 0.14063-0.12891 0.039062-0.53906 0.03125-0.80859 0.03125-0.55859 0-1.1914-0.019532-1.8008 0.12891-0.058594 0.011718-0.12109 0.039062-0.17969 0.058594-2.75-1.1406-5.6914-1.7188-8.7305-1.7188-12.719 0-23.07 10.352-23.07 23.07 0 2.9414 0.55078 5.7812 1.6211 8.4688-0.41016 0.39062-0.78125 0.85156-1.0195 1.4609-0.078125 0.21094-0.12891 0.42187-0.17188 0.62891 0 0.050781-0.019532 0.10156-0.03125 0.14844-0.03125 0.19922-0.050782 0.39844-0.050782 0.58984v0.03125c0 0.19141 0.011719 0.37109 0.03125 0.55078 0 0.050782 0.011719 0.10156 0.019532 0.14844 0.019531 0.17188 0.050781 0.33984 0.078125 0.51172v0.019532c-2.3711-3.8984-3.6602-8.4219-3.6602-13.07 0-13.91 11.32-25.219 25.219-25.219zm-5.5391 36.031c-0.050781 0.19141-0.16016 0.51172-0.25 0.73047-0.21875 0.60156-0.46875 1.2695-0.53125 2.0508-0.050781 0.76172 0.12891 1.4492 0.28125 2.0508 0.070313 0.28125 0.17188 0.67188 0.17969 0.87109-0.14062 0.14062-0.48047 0.35938-0.71875 0.51953-0.53125 0.33984-1.1211 0.73047-1.5898 1.3203-0.5 0.60938-0.76953 1.2891-1.0117 1.8789-0.089843 0.21875-0.21094 0.51953-0.30859 0.69922-0.21875 0-0.57813-0.039063-0.83984-0.078125-0.55859-0.070313-1.1914-0.14844-1.8594-0.070313-0.64062 0.078125-1.2188 0.30078-1.7188 0.48828-0.21875 0.078124-0.51953 0.19922-0.73047 0.25-0.12109-0.17969-0.26172-0.46875-0.37109-0.67969-0.23828-0.48047-0.51953-1.0312-0.94922-1.5391-0.14844-0.17188-0.32813-0.35156-0.51953-0.51953-0.26172-0.23047-0.57031-0.44922-0.87109-0.67188-0.10156-0.070312-0.23047-0.16016-0.33984-0.23828 0 0-0.011719 0-0.019531-0.011719-0.03125-0.019531-0.058594-0.039062-0.089844-0.070312-0.03125-0.019531-0.058594-0.039063-0.078125-0.058594-0.019531-0.011719-0.03125-0.019531-0.039063-0.03125-0.03125-0.019531-0.058594-0.050781-0.078125-0.058594 0 0 0-0.011719-0.011719-0.011719 0-0.019531 0.019532-0.050781 0.019532-0.070312 0.050781-0.19141 0.14844-0.46875 0.23047-0.67969 0.21875-0.60156 0.48047-1.2812 0.53125-2.0586 0.050782-0.76172-0.12891-1.4492-0.28125-2.0586-0.070312-0.26953-0.17187-0.67188-0.17969-0.87109 0.058594-0.058593 0.17969-0.16016 0.42188-0.32031l0.25-0.16016c0.53906-0.35156 1.1484-0.75 1.6484-1.3594 0.48828-0.60938 0.76172-1.2812 1-1.8711 0.089843-0.21875 0.21875-0.53125 0.30859-0.71094 0.21094 0 0.57812 0.039063 0.82812 0.078125 0.55859 0.070313 1.1914 0.14844 1.8594 0.070313 0.64062-0.078125 1.2109-0.30078 1.7188-0.48828 0.10938-0.039062 0.25-0.089843 0.37891-0.14062 0.039062-0.011719 0.070312-0.019532 0.10937-0.039063 0.089844-0.03125 0.17188-0.058594 0.23828-0.070313 0.03125 0.050782 0.070312 0.12109 0.12891 0.21094 0.078125 0.14844 0.16016 0.30859 0.23828 0.46094 0.23828 0.48047 0.51953 1.0195 0.94141 1.5312 0.19141 0.21875 0.42187 0.44141 0.62891 0.62109 0.21094 0.17969 0.44922 0.35156 0.71094 0.53125l0.14844 0.10938c0.17188 0.12109 0.32812 0.23828 0.48047 0.35938 0.050781 0.039063 0.078124 0.070313 0.10937 0.10156z"
       id="path1" />
    <path
       d="m83.789 28.449c-0.14844-0.14062-0.32031-0.23828-0.48828-0.32031-0.070312-0.12891-0.12891-0.26172-0.19922-0.39844-0.44141-0.89844-1.0391-2.1406-2.4297-2.7109-1.3789-0.55859-2.6719-0.10156-3.6094 0.23828-0.30078 0.10938-0.64844 0.23047-0.82031 0.25-0.16016 0.011719-0.53906-0.039062-0.83984-0.078124-0.94922-0.14063-2.2383-0.32031-3.4805 0.39844-1.1094 0.64844-1.5781 1.7695-1.9297 2.5898-0.14063 0.32031-0.30859 0.71875-0.44141 0.87109-0.089843 0.10938-0.44922 0.32813-0.67969 0.48047-0.76172 0.48047-1.8008 1.1406-2.3008 2.3711s-0.21875 2.4414-0.011718 3.3086c0.058594 0.26953 0.16016 0.67969 0.14844 0.82031-0.019531 0.19141-0.17188 0.58984-0.30078 0.91016-0.32812 0.82812-0.76953 1.9805-0.44141 3.1992 0.26172 1 0.89844 1.6602 1.3594 2.0781 0.21875 0.19922 0.46875 0.39062 0.71875 0.57031l0.21875 0.16016c0.14062 0.10156 0.26953 0.19141 0.41016 0.32031 0.050781 0.050782 0.10938 0.089844 0.14062 0.12891 0.12109 0.14844 0.28125 0.48047 0.42188 0.76953 0.10156 0.19922 0.19922 0.39844 0.30078 0.58984 0.17188 0.32812 0.44922 0.78125 0.83984 1.1992 0.75 1.1992 1.1484 2.5703 1.1211 3.9883-0.03125 1.9609-0.82812 3.7891-2.2383 5.1602-1.4102 1.3711-3.25 2.1094-5.2305 2.0703-1.5781-0.03125-3.0508-0.55859-4.2891-1.5117-0.51953-1.0195-1.4102-1.6992-2.1992-2.0312-0.35156-0.17188-0.64062-0.23828-0.82031-0.28125l-0.10938-0.03125c-0.21094-0.058594-0.35156-0.10938-0.46875-0.14844l-0.28125-0.089844s-0.078125-0.03125-0.14062-0.058593c-0.070312-0.039063-0.14062-0.10156-0.17188-0.12109-0.14062-0.12109-0.28906-0.25-0.42969-0.37891-0.69141-0.62891-1.6289-1.5-3.0195-1.6016-1.25-0.10938-2.2812 0.51172-3.0312 0.96875-0.30078 0.17969-0.64062 0.39062-0.82031 0.42969-0.12891 0.039062-0.53906 0.019531-0.82031 0.011718-0.87891-0.03125-2.0781-0.070312-3.1602 0.62891-1.1016 0.71094-1.5586 1.8203-1.8984 2.6289-0.10156 0.25-0.26172 0.62109-0.33984 0.73047-0.12109 0.14844-0.44922 0.37891-0.73828 0.57031-0.71875 0.48828-1.6992 1.1719-2.1289 2.3594-0.48047 1.3086-0.078125 2.5195 0.21094 3.4102 0.089844 0.28125 0.21094 0.62891 0.21875 0.78906 0.011718 0.17188-0.039063 0.51953-0.078125 0.82031-0.14062 0.96875-0.33984 2.2891 0.46094 3.5195 0.71094 1.1016 1.8008 1.5195 2.6992 1.7891 5.4102 5.8906 13.031 9.3281 21.031 9.4609h0.48828c7.6289 0 14.828-2.9102 20.32-8.2305 5.6094-5.4297 8.7617-12.719 8.8906-20.52 0.14062-8.3984-3.3594-16.461-9.5898-22.121zm-5.5 20.078c-0.14062 8.4297-7.1406 15.199-15.66 15.199h-0.26172c-0.64063-0.011718-1.2617-0.070312-1.8789-0.14844v-0.011719c0.25-1.0781-0.039062-2.0703-0.28906-2.8516 1.1992 0.44922 2.4805 0.69141 3.7812 0.71875 3.0117 0.050781 5.8984-1.0781 8.0781-3.1914 2.1797-2.1094 3.3984-4.9414 3.4492-7.9688 0.019532-1.1289-0.12891-2.25-0.44141-3.3203 0.070313-0.03125 0.14844-0.050781 0.21875-0.078125 0.30078-0.10938 0.64844-0.23047 0.82031-0.25s0.53906 0.039062 0.83984 0.078125c0.37891 0.050781 0.80859 0.10938 1.2695 0.12109 0.050781 0.55859 0.078125 1.1211 0.078125 1.6914zm-21.148 19.129c0.10156-0.25 0.26172-0.62891 0.35156-0.73828 0.12109-0.14844 0.44922-0.37109 0.73047-0.57031 0.058594-0.039062 0.10938-0.078125 0.17188-0.12109 1.2812 0.30078 2.6016 0.46094 3.9414 0.48047h0.30859c10.16 0 18.5-8.0781 18.66-18.148 0.019531-0.94922-0.050782-1.8906-0.17969-2.8086 0.019531-0.019531 0.03125-0.03125 0.050781-0.039062v-0.011719c0.58984-0.60938 0.92188-1.3711 1.1719-1.9688 0.60156 1.9688 0.91016 4.0312 0.87109 6.1406-0.089844 5.3594-2.25 10.371-6.1094 14.102-3.7695 3.6484-8.7188 5.6484-13.949 5.6484h-0.32812c-2.1094-0.03125-4.1484-0.39844-6.0898-1.0586 0.16016-0.32031 0.28906-0.62891 0.41016-0.89844zm12.73-28.289c0.050781-0.19141 0.17188-0.5 0.26172-0.73047 0.23047-0.58984 0.5-1.2695 0.55859-2.0391 0.058594-0.76172-0.10156-1.4492-0.25-2.0586-0.058594-0.28125-0.16016-0.67969-0.16016-0.87109 0.14062-0.14062 0.48828-0.35938 0.71875-0.51172 0.53125-0.33984 1.1289-0.71875 1.6094-1.3008 0.51172-0.60938 0.78906-1.2812 1.0391-1.8711 0.089843-0.21875 0.21875-0.51953 0.32031-0.69141h0.011719c0.21094 0 0.57031 0.050781 0.82812 0.089843 0.55078 0.078126 1.1797 0.17188 1.8594 0.10156 0.64062-0.070313 1.2188-0.28125 1.7305-0.46094 0.21875-0.078126 0.53125-0.19141 0.73047-0.23828 0.10938 0.17969 0.26172 0.46875 0.35938 0.69141 0.23828 0.48828 0.5 1.0391 0.92969 1.5703 0.14844 0.17188 0.32031 0.35156 0.5 0.51953 0.26172 0.23828 0.55859 0.46094 0.87109 0.67969 0.17188 0.12109 0.39063 0.28906 0.53906 0.39844 0 0 0.011719 0 0.019531 0.011719 0.039063 0.03125 0.058594 0.050781 0.089844 0.070312 0 0 0.011719 0.011719 0.019531 0.019532-0.019531 0.089844-0.058593 0.21094-0.10938 0.32812-0.050781 0.14062-0.10938 0.28906-0.16016 0.41016-0.23047 0.60156-0.5 1.2695-0.55859 2.0586-0.058594 0.76172 0.10156 1.4492 0.25 2.0586 0.058594 0.26953 0.16016 0.67188 0.16016 0.87109-0.058593 0.058594-0.17969 0.14844-0.42187 0.30859l-0.25 0.16016c-0.55078 0.33984-1.1719 0.73047-1.6719 1.3398-0.5 0.60156-0.78125 1.2617-1.0312 1.8516-0.089843 0.21875-0.21875 0.53125-0.32031 0.69922-0.21875 0-0.57812-0.050781-0.82812-0.089843-0.55859-0.078126-1.1797-0.17188-1.8594-0.10156-0.64062 0.070313-1.2188 0.28125-1.7188 0.46094-0.10938 0.039063-0.25 0.089844-0.39062 0.12891-0.039063 0.011719-0.078125 0.019531-0.12109 0.03125-0.089843 0.03125-0.17188 0.050781-0.23828 0.070312-0.03125-0.050781-0.070312-0.12109-0.12109-0.21094-0.078125-0.14844-0.16016-0.30859-0.23047-0.46094-0.23828-0.48828-0.5-1.0391-0.92188-1.5508-0.19141-0.21875-0.41016-0.44141-0.62891-0.62891-0.21094-0.17969-0.42969-0.35156-0.69141-0.53125l-0.16016-0.12109c-0.16016-0.12109-0.32812-0.23828-0.46094-0.35938-0.050781-0.039062-0.078125-0.078125-0.10938-0.10156zm-14.219 18.031s0.089844 0.058593 0.14062 0.078124c-0.039063-0.019531-0.089844-0.039062-0.14844-0.078124zm-12.102 3.0391c0.48047-0.32812 1.0781-0.73828 1.5703-1.3281 0.46875-0.55859 0.73047-1.1914 0.94922-1.7383 0.12109-0.28125 0.28906-0.71094 0.32031-0.76953 0.14844-0.050781 0.60938-0.039062 0.92188-0.03125 0.58984 0.019532 1.2695 0.039063 1.9805-0.14844 0.73047-0.19922 1.3203-0.55859 1.8516-0.87891 0.19922-0.12109 0.46875-0.28906 0.64844-0.37109 0.17188 0.10938 0.42969 0.35938 0.62109 0.53125 0.19922 0.17969 0.39844 0.37109 0.64063 0.55859 0.23047 0.17969 0.48828 0.37109 0.78125 0.51953 0.25 0.12891 0.51953 0.25 0.80078 0.33984l0.21875 0.070312c0.16016 0.050782 0.32031 0.10938 0.57812 0.19141 0.12891 0.039063 0.25 0.070313 0.42188 0.10938 0.039062 0.019531 0.078125 0.039062 0.12109 0.058593 0.050782 0.019531 0.12109 0.070313 0.17188 0.12109-0.011719 0.19922-0.050782 0.46875-0.078126 0.69922 0 0.058594-0.019531 0.14062-0.03125 0.19922-0.03125 0.19922-0.058593 0.39844-0.078124 0.60156v0.16016c-0.011719 0.21875-0.019532 0.44922-0.011719 0.67188v0.039063 0.019531 0.03125c0.058593 1.0391 0.30859 1.8086 0.48828 2.3203 0.019531 0.070313 0.050781 0.14844 0.070312 0.21875l-0.011718 0.011719c-0.050782 0.039063-0.10938 0.089844-0.21094 0.14844-0.10938 0.078125-0.23047 0.16016-0.33984 0.23828-0.5 0.33984-1.0703 0.73047-1.5391 1.3086-0.46875 0.57031-0.73047 1.1992-0.96094 1.75-0.12109 0.28125-0.30078 0.71094-0.35156 0.76953-0.19141 0.039063-0.55859 0.03125-0.87891 0.019531-0.60156-0.019531-1.2812-0.039062-1.9805 0.14844-0.73047 0.19922-1.3203 0.55859-1.8516 0.87109-0.19922 0.12109-0.46875 0.28906-0.64844 0.37109-0.17188-0.10938-0.44141-0.35938-0.62109-0.53125-0.39844-0.35938-0.85156-0.78125-1.4219-1.0781-0.39844-0.21875-0.85156-0.39062-1.3594-0.53125l-0.25-0.070312c-0.21875-0.070313-0.51953-0.16016-0.71094-0.23047 0-0.19922 0.050781-0.51953 0.089844-0.75 0.078124-0.51172 0.16016-1.0781 0.12109-1.6992-0.050781-0.64062-0.23828-1.2188-0.39844-1.7383-0.078125-0.25-0.19141-0.58984-0.21875-0.78906 0.14062-0.12891 0.41016-0.30859 0.60156-0.44141zm38.148 7.7617c-4.8398 4.6914-11.25 7.2305-17.949 7.1016-4.7188-0.078125-9.2891-1.4883-13.211-4 0 0 0.019532-0.011719 0.03125-0.019531 0.12109-0.070312 0.25-0.14844 0.35938-0.21094 0.011718 0 0.019531-0.011718 0.03125-0.019531 0.12109-0.058593 0.23047-0.12109 0.30859-0.14062 0.12891-0.03125 0.53906-0.019531 0.80859-0.011718 0.55078 0.019531 1.1914 0.039062 1.8086-0.10156 0.058593-0.011719 0.12109-0.039063 0.17969-0.050781 2.7383 1.1797 5.6602 1.8086 8.7109 1.8594h0.37891c6.0195 0 11.699-2.3008 16.039-6.5 4.4297-4.2891 6.9219-10.039 7.0195-16.199 0.050781-2.9414-0.46094-5.7891-1.4805-8.4883 0.42188-0.37891 0.80078-0.83984 1.0391-1.4492 0.078124-0.21094 0.14062-0.42188 0.17969-0.62109 0.011719-0.050781 0.019531-0.10156 0.03125-0.14844 0.03125-0.19922 0.058594-0.39844 0.058594-0.58984v-0.019531c0-0.19141 0-0.37891-0.019531-0.57031 0-0.039062 0-0.078125-0.011719-0.12109-0.019531-0.17969-0.050781-0.35938-0.078125-0.53125 2.3008 3.9414 3.5195 8.4688 3.4414 13.121-0.10938 6.7383-2.8281 13.031-7.6719 17.711z"
       id="path2" />
  </g>
</svg>
