<?xml version="1.0" encoding="UTF-8" standalone="no"?>
<svg
   version="1.1"
   x="0px"
   y="0px"
   viewBox="0 0 64 80"
   style="enable-background:new 0 0 64 64;"
   xml:space="preserve"
   id="svg2"
   sodipodi:docname="patties.svg"
   inkscape:version="1.3 (0e150ed6c4, 2023-07-21)"
   xmlns:inkscape="http://www.inkscape.org/namespaces/inkscape"
   xmlns:sodipodi="http://sodipodi.sourceforge.net/DTD/sodipodi-0.dtd"
   xmlns="http://www.w3.org/2000/svg"
   xmlns:svg="http://www.w3.org/2000/svg"><defs
     id="defs2" /><sodipodi:namedview
     id="namedview2"
     pagecolor="#505050"
     bordercolor="#eeeeee"
     borderopacity="1"
     inkscape:showpageshadow="0"
     inkscape:pageopacity="0"
     inkscape:pagecheckerboard="0"
     inkscape:deskcolor="#505050"
     inkscape:zoom="9.7125"
     inkscape:cx="32.020592"
     inkscape:cy="23.526384"
     inkscape:window-width="1920"
     inkscape:window-height="991"
     inkscape:window-x="-9"
     inkscape:window-y="-9"
     inkscape:window-maximized="1"
     inkscape:current-layer="svg2" /><g
     id="g1"><path
       d="M62.6757812,23.1577148C60.2460938,22.1186523,47.3447266,16.9355469,32,16.9355469   c-15.34375,0-28.2460938,5.1835938-30.6767578,6.2226562c-0.5273438,0.2255859-0.8574219,0.7631836-0.8203125,1.3378906   c0.0283203,0.4580078,0.2832031,0.8676758,0.6816406,1.0966797c0.3525391,0.2026367,1.0869141,0.6245117,1.2158203,0.9921875   c0.0869141,0.2416992-0.2529297,0.925293-0.5019531,1.4248047l-0.2167969,0.4404297   c-0.3798828,0.793457-0.6777344,1.6196289-0.2783203,2.2861328c0.3505859,0.5849609,1.1611328,0.7299805,1.9619141,0.8276367   l0.4853516,0.0541992c0.6943359,0.0737305,1.5585938,0.1650391,1.7949219,0.4575195   c0.1845703,0.2250977,0.0585938,1.0161133-0.0322266,1.59375c-0.0429688,0.2670898-0.0849609,0.5356445-0.1123047,0.7900391   c-0.0683594,0.6088867-0.0849609,1.3691406,0.4082031,1.8515625c0.4453125,0.4335938,1.1552734,0.4423828,1.7138672,0.4008789   c0.28125-0.0175781,0.5791016-0.0522461,0.8779297-0.0874023c0.6923828-0.0810547,1.5527344-0.1831055,1.8369141,0.0473633   c0.2441406,0.1948242,0.2880859,0.9790039,0.3232422,1.6088867c0.0224609,0.3994141,0.0458984,0.8129883,0.1132812,1.1855469   c0.0712891,0.4116211,0.2236328,0.9956055,0.7070312,1.3017578c0.3369141,0.2246094,0.7851562,0.2797852,1.3681641,0.1723633   c0.3994141-0.0683594,0.8339844-0.203125,1.2539062-0.3330078c0.6601562-0.2036133,1.4824219-0.4575195,1.7978516-0.2866211   c0.2871094,0.1533203,0.484375,0.9262695,0.6425781,1.546875c0.1396484,0.5454102,0.2832031,1.109375,0.5224609,1.5419922   c0.1953125,0.3598633,0.4482422,0.6074219,0.7480469,0.7338867c0.2724609,0.1171875,0.5888672,0.1323242,0.9609375,0.0498047   c0.5068359-0.1103516,1.0585938-0.3994141,1.5917969-0.6782227c0.6064453-0.3178711,1.3603516-0.7148438,1.7080078-0.6069336   c0.3222656,0.1020508,0.6738281,0.8276367,0.9570312,1.4111328c0.3320312,0.6835938,0.6748047,1.390625,1.1904297,1.7563477   c0.0166016,0.0117188,0.0341797,0.0224609,0.0517578,0.0322266c0.1601562,0.1088867,0.3115234,0.1733398,0.4609375,0.1992188   c0.1630859,0.0361328,0.3398438,0.0356445,0.5,0.0048828c0.6328125-0.1035156,1.2617188-0.6171875,1.8710938-1.1137695   c0.5234375-0.4272461,1.1484375-0.9711914,1.5380859-0.9213867c0.3378906,0.0371094,0.8427734,0.6748047,1.2480469,1.1875   c0.6220703,0.7866211,1.2646484,1.6000977,2.1103516,1.6000977c0.8398438,0,1.4804688-0.8105469,2.1005859-1.59375   c0.4072266-0.515625,0.9140625-1.1567383,1.2558594-1.1933594c0.3515625-0.0419922,1.0087891,0.4921875,1.53125,0.9179688   c0.6132812,0.5,1.2470703,1.0170898,1.8701172,1.1132812c0.1708984,0.034668,0.3398438,0.0341797,0.4853516,0.0019531   c0.2177734-0.0380859,0.3867188-0.1367188,0.5234375-0.2270508c0.5185547-0.3657227,0.8642578-1.0751953,1.1972656-1.7612305   c0.2851562-0.5839844,0.6386719-1.3115234,0.9628906-1.4135742c0.3505859-0.1132812,1.1054688,0.2871094,1.7119141,0.6054688   c0.5332031,0.2797852,1.0839844,0.5688477,1.5849609,0.6777344c0.3554688,0.081543,0.6757812,0.0673828,0.9550781-0.046875   c0.3027344-0.1279297,0.5556641-0.3754883,0.7490234-0.7319336c0.2412109-0.4355469,0.3847656-0.9995117,0.5244141-1.5444336   c0.1582031-0.6210938,0.3554688-1.394043,0.6435547-1.5483398c0.3212891-0.171875,1.1386719,0.0820312,1.796875,0.2861328   c0.4228516,0.1303711,0.859375,0.2651367,1.2548828,0.3330078c0.5859375,0.1083984,1.0371017,0.0527344,1.3681641-0.1679688   c0.4863281-0.3144531,0.6367188-0.8916016,0.7070312-1.2963867c0.0664062-0.375,0.0888672-0.7890625,0.1113281-1.1894531   c0.0341797-0.6318359,0.0761719-1.4179688,0.3251953-1.6147461c0.2841797-0.2275391,1.1455078-0.1274414,1.8359375-0.0463867   c0.2988281,0.0351562,0.5966797,0.0698242,0.8740234,0.0869141c0.5634766,0.0410156,1.2714844,0.03125,1.7255859-0.4013672   c0.484375-0.4731445,0.4736328-1.2006836,0.4003906-1.847168c-0.0273438-0.2543945-0.0693359-0.5200195-0.1113281-0.784668   c-0.0917969-0.5810547-0.2177734-1.3769531-0.0332031-1.6025391c0.2382812-0.2905273,1.1123047-0.3842773,1.8154297-0.4594727   l0.4609375-0.0512695c0.8017578-0.0908203,1.6142578-0.2299805,1.9677734-0.8291016   c0.3974609-0.6674805,0.1005859-1.4926758-0.2792969-2.284668l-0.2148438-0.4370117   c-0.25-0.5009766-0.5917969-1.1870117-0.5039062-1.4326172c0.1279297-0.3647461,0.8623047-0.7861328,1.2167969-0.9892578   c0.3964844-0.2285156,0.6513672-0.6376953,0.6806641-1.0942383C63.5341797,23.9223633,63.2041016,23.3837891,62.6757812,23.1577148   z M59.0975342,22.8383179C56.4316406,30.4202271,45.7870483,40.5673828,32,40.5673828   c-13.7846069,0-24.4327393-10.1464844-27.1000977-17.7280273C10.0792847,20.9761963,20.3199463,17.9355469,32,17.9355469   C43.6795044,17.9355469,53.9180298,20.9752197,59.0975342,22.8383179z M62.3173828,24.7255859   c-0.7128906,0.4091797-1.4287109,0.8642578-1.6601562,1.5209961c-0.2314453,0.6450195,0.1494141,1.4072266,0.5517578,2.2143555   l0.2070312,0.421875c0.1240234,0.2578125,0.5,1.0424805,0.3212891,1.3432617   c-0.0869141,0.1469727-0.4970703,0.2631836-1.2246094,0.3452148l-0.4502029,0.0507812   c-0.9755783,0.1044922-1.9853439,0.2128906-2.4824142,0.8203125c-0.46875,0.5732422-0.3291016,1.456543-0.1806641,2.3920898   c0.0390625,0.2480469,0.0791016,0.4970703,0.1044922,0.7382812c0.0625,0.5488281,0.0273438,0.8930664-0.1005859,1.0175781   c-0.0693359,0.0673828-0.2871094,0.1728516-0.9648438,0.1235352c-0.2636719-0.0166016-0.5439453-0.0498047-0.8242188-0.0825195   c-0.96875-0.1132812-1.96875-0.2304688-2.5761719,0.2578125c-0.5986328,0.4746094-0.6503906,1.4243164-0.7001953,2.3422852   c-0.0195312,0.3706055-0.0410156,0.753418-0.0966797,1.0698242c-0.0751953,0.4277344-0.1855469,0.5791016-0.2714844,0.6347656   c-0.0498047,0.0327148-0.2109375,0.0976562-0.6435547,0.019043c-0.3388672-0.0581055-0.7431641-0.1831055-1.1347656-0.3041992   c-0.9238281-0.2856445-1.8789139-0.581543-2.5644531-0.2119141c-0.6767578,0.3613281-0.9130859,1.2871094-1.140625,2.1821289   c-0.1240234,0.4838867-0.2519531,0.984375-0.4326172,1.3110352c-0.0585938,0.1074219-0.1503906,0.2446289-0.2548828,0.2890625   c-0.0761719,0.0297852-0.2021484,0.0302734-0.3544922-0.0053711c-0.3740234-0.0810547-0.8642578-0.3383789-1.3378906-0.5874023   c-0.8525391-0.4462891-1.734375-0.9057617-2.4775391-0.6738281c-0.734375,0.2319336-1.1542969,1.0952148-1.5605469,1.9301758   c-0.265625,0.5458984-0.5664062,1.1640625-0.8623047,1.3730469c-0.0234375,0.0146484-0.0927734,0.0610352-0.1337891,0.0683594   c-0.0009766,0-0.0029297,0-0.0068359,0c-0.0292969-0.0004883-0.1328125-0.0029297-0.1367188-0.0019531   c-0.3691406-0.0576172-0.9199219-0.5073242-1.40625-0.9038086c-0.734375-0.5991211-1.4951172-1.2148438-2.2685547-1.1376953   c-0.7607422,0.0825195-1.3574219,0.8374023-1.9345703,1.5673828c-0.4277344,0.5410156-0.9599609,1.2143555-1.3164062,1.2143555   c-0.3613281,0-0.8964844-0.6767578-1.3261719-1.2207031c-0.5751953-0.7270508-1.1699219-1.4785156-1.9267578-1.5615234   c-0.046875-0.0043945-0.0927734-0.0068359-0.1386719-0.0068359c-0.7304688,0-1.4453125,0.5830078-2.1376953,1.1479492   c-0.4833984,0.3945312-1.03125,0.8413086-1.3193359,0.8950195c-0.0332031,0-0.0722656,0.003418-0.1044922,0.0097656   c-0.0429688,0.0092773-0.0839844,0.0053711-0.1230469-0.0019531c-0.0253906-0.0048828-0.0634766-0.0253906-0.1123047-0.0615234   c-0.015625-0.0107422-0.03125-0.0209961-0.0478516-0.0302734c-0.2939453-0.2373047-0.5810547-0.828125-0.8349609-1.3515625   c-0.4042969-0.8339844-0.8222656-1.6958008-1.5576172-1.9291992c-0.7509766-0.230957-1.6220703,0.230957-2.4707031,0.675293   c-0.4746094,0.2485352-0.9658279,0.5053711-1.3427734,0.5874023c-0.1630859,0.0366211-0.28125,0.0390625-0.3544922,0.0068359   c-0.1103516-0.0463867-0.2021484-0.1835938-0.2626953-0.2944336c-0.1787109-0.3232422-0.3066406-0.8242188-0.4306641-1.3081055   c-0.2275391-0.8950195-0.4638672-1.8203125-1.1367188-2.1806641c-0.6845703-0.3696289-1.6416016-0.074707-2.5683594,0.2124023   c-0.4072266,0.1259766-0.7919922,0.2451172-1.1416016,0.3037109c-0.4042969,0.0761719-0.5693359,0.0200195-0.6396484-0.0263672   c-0.0800781-0.0507812-0.1914062-0.2026367-0.2675781-0.6376953c-0.0566406-0.3149414-0.078125-0.6977539-0.0986328-1.0673828   c-0.0517578-0.9145508-0.1044922-1.8598633-0.6962891-2.3325195c-0.609375-0.4916992-1.6103516-0.3754883-2.5791016-0.2607422   c-0.2802734,0.0327148-0.5605469,0.065918-0.8291016,0.0830078c-0.6962891,0.0498047-0.8955078-0.0673828-0.9482422-0.1191406   c-0.1367188-0.1337891-0.1748047-0.4775391-0.1123047-1.0258789c0.0253906-0.2416992,0.0664062-0.4936523,0.1054688-0.7436523   c0.1474609-0.9316406,0.2871094-1.8115234-0.1796875-2.3808594c-0.4931641-0.6123047-1.4960938-0.7182617-2.4648438-0.8212891   l-0.4697266-0.0517578c-0.7275391-0.0893555-1.1396484-0.2070312-1.2255859-0.3491211   c-0.1777344-0.296875,0.1865234-1.0546875,0.3232422-1.3413086l0.2089844-0.4257812   c0.4013672-0.8051758,0.7802734-1.565918,0.5498047-2.2060547c-0.2324219-0.6591797-0.9472656-1.1142578-1.6601562-1.5239258   c-0.1064453-0.0610352-0.1738281-0.1699219-0.1816406-0.2910156c0-0.0004883,0-0.0009766,0-0.0019531   c-0.0097656-0.1552734,0.0742188-0.2944336,0.2148438-0.3544922c0.4298706-0.1837769,1.1967163-0.5003052,2.2446899-0.8937988   C7.0963135,32.1570435,18.9124756,41.5673828,32,41.5673828c13.0893555,0,24.8969116-9.4125977,28.0308228-18.3865356   c1.052002,0.3948364,1.8214111,0.7125244,2.2523804,0.8967896c0.140625,0.0600586,0.2255859,0.2001953,0.2158203,0.355957   C62.4912109,24.5556641,62.4228516,24.6645508,62.3173828,24.7255859z"
       id="path1"
       style="fill:#ffffff" /></g><path
     style="fill:#000000;fill-rule:evenodd;stroke:#ffffff;stroke-width:0.20592;stroke-linejoin:round"
     d="M 29.395109,40.396265 C 22.729884,39.779286 16.121504,36.637963 11.030696,31.666655 8.8980292,29.584051 7.3794843,27.641557 6.1560845,25.431145 c -0.5514349,-0.99632 -1.2266779,-2.49421 -1.1549446,-2.56201 0.024148,-0.02282 1.0523539,-0.369593 2.2849025,-0.7706 6.2321106,-2.0276 12.3486906,-3.272362 19.1232236,-3.891696 2.627008,-0.240163 8.465024,-0.239322 11.171172,0.0016 6.786023,0.604168 12.874801,1.84481 19.290654,3.930641 l 2.096317,0.681525 -0.06477,0.323837 c -0.112667,0.563337 -1.16277,2.572604 -2.008215,3.842519 -1.188026,1.784494 -2.023639,2.791003 -3.708828,4.46734 -6.474844,6.440839 -15.23597,9.733817 -23.790489,8.941954 z"
     id="path2" /><path
     style="opacity:1;fill:#000000;fill-rule:evenodd;stroke:#ffffff;stroke-width:0.6;stroke-linejoin:round;stroke-dasharray:none"
     d="m 23.474903,20.797941 c 0.734717,1.147574 0.720721,2.307071 0.720721,3.603603 0,0.583441 0.114422,1.178212 0,1.750322 -0.117682,0.58841 -0.479161,1.115932 -0.720721,1.647362 -0.209388,0.460654 -0.317564,0.981224 -0.5148,1.441441 -0.320577,0.748013 -0.88719,1.401991 -1.441441,1.956242"
     id="path10" /><path
     style="opacity:1;fill:#000000;fill-rule:evenodd;stroke:#ffffff;stroke-width:0.6;stroke-linejoin:round;stroke-dasharray:none"
     d="m 29.85843,20.900901 c 0.950807,3.547645 0.172652,6.553023 -1.441442,9.78121 -0.834102,1.668204 -0.644463,0.860878 -1.338481,2.162162 -0.03574,0.06701 -0.456427,1.060402 -0.5148,1.235521 -0.05534,0.166018 -0.0247,0.358277 -0.102961,0.514801 -0.06361,0.127228 -0.09941,0.10296 -0.20592,0.10296"
     id="path11" /><path
     style="opacity:1;fill:#000000;fill-rule:evenodd;stroke:#ffffff;stroke-width:0.6;stroke-linejoin:round;stroke-dasharray:none"
     d="m 34.491634,21.621622 c 0.06864,0.75504 0.16806,1.507913 0.205921,2.265122 0.07224,1.444825 0.135563,3.03046 -0.308881,4.427284 -0.158498,0.49814 -0.41184,0.960961 -0.61776,1.441442 -0.08566,0.199871 -0.240016,0.308207 -0.308881,0.5148 -0.05742,0.172272 -0.104852,0.346354 -0.20592,0.514801 -0.113063,0.188439 -0.298777,0.326362 -0.41184,0.5148 -0.313932,0.07289 -0.03968,0.285275 -0.10296,0.411841 -0.08148,0.162952 -0.308881,0.328428 -0.308881,0.5148"
     id="path12" /><path
     style="opacity:1;fill:#000000;fill-rule:evenodd;stroke:#ffffff;stroke-width:0.6;stroke-linejoin:round;stroke-dasharray:none"
     d="m 44.890605,28.519949 c 0.10296,0.13728 0.20592,0.27456 0,0 z"
     id="path13" /><path
     style="opacity:1;fill:#000000;fill-rule:evenodd;stroke:#ffffff;stroke-width:0.6;stroke-linejoin:round;stroke-dasharray:none"
     d="m 50.03861,25.534106 c 0.13728,-0.06864 0.27456,-0.137281 0,0 z"
     id="path14" /><path
     style="fill:#000000;fill-rule:evenodd;stroke:#ffffff;stroke-width:0.0617761;stroke-linejoin:round"
     d="m 31.289067,45.424297 c -0.277198,-0.301065 -0.74566,-0.828986 -1.041027,-1.173158 -0.667909,-0.778272 -1.287353,-1.108451 -1.888888,-1.006822 -0.411799,0.06957 -1.335692,0.643532 -2.413206,1.499178 -0.978473,0.776999 -1.153413,0.688692 -2.048506,-1.034059 -1.091403,-2.100579 -1.669755,-2.277285 -3.893073,-1.189462 -0.639468,0.312879 -1.309712,0.597111 -1.489432,0.631629 -0.299859,0.05759 -0.343362,0.03004 -0.528359,-0.334641 -0.110877,-0.21857 -0.317159,-0.821845 -0.458405,-1.340612 -0.293943,-1.079595 -0.622261,-1.727199 -1.027627,-2.026987 -0.413055,-0.305472 -1.318724,-0.26122 -2.65241,0.129602 -0.594595,0.17424 -1.251233,0.317085 -1.459197,0.317437 -0.335755,5.67e-4 -0.390361,-0.03685 -0.487415,-0.333982 -0.06012,-0.184042 -0.156274,-0.875747 -0.213687,-1.537124 C 11.571266,36.68244 11.481072,36.364705 11.104336,35.969732 10.656068,35.499763 10.120348,35.419278 8.4545603,35.571633 6.4641445,35.753679 6.4790489,35.762232 6.5973924,34.505936 6.6461427,33.988417 6.6874643,33.140067 6.689218,32.620713 6.6921435,31.75436 6.6711645,31.653368 6.4350064,31.396946 6.0330658,30.960517 5.4569889,30.760375 4.0892594,30.581978 3.3936932,30.491254 2.7102955,30.373569 2.5705979,30.320456 2.1816569,30.172581 2.24468,29.742906 2.8391825,28.489318 3.780347,26.504746 3.6105177,25.753315 2.018616,24.858616 1.5945544,24.62028 1.4824903,24.35923 1.7245817,24.173672 c 0.070785,-0.05426 0.5949707,-0.284589 1.164857,-0.511853 l 1.0361568,-0.413206 0.2389837,0.627946 c 0.643604,1.691112 2.0138493,3.993541 3.4680816,5.827431 0.9239396,1.165153 3.4430302,3.666359 4.7207182,4.687203 2.38741,1.907485 5.611645,3.809589 8.341602,4.921041 7.68784,3.129962 15.509261,3.048664 23.181935,-0.24096 5.671697,-2.431714 10.82636,-6.649966 13.963053,-11.426486 0.702217,-1.069327 1.954742,-3.493742 2.087797,-4.041184 0.03785,-0.155728 0.12747,-0.283141 0.199156,-0.283141 0.132521,0 1.764302,0.637353 2.12227,0.828931 0.324788,0.173821 0.225024,0.390653 -0.348557,0.757568 -0.76947,0.492224 -1.305862,1.113271 -1.320011,1.528341 -0.02267,0.6651 0.03303,0.866562 0.537428,1.943768 0.28191,0.602054 0.539591,1.261195 0.572625,1.464758 0.05342,0.329198 0.03054,0.381339 -0.207013,0.471655 -0.146891,0.05585 -0.836174,0.174367 -1.531739,0.263377 -1.686818,0.215859 -2.310004,0.506928 -2.597825,1.213357 -0.186124,0.456825 -0.191221,0.564537 -0.07066,1.492922 0.259251,1.996411 0.260045,2.026682 0.05846,2.228271 -0.167614,0.167614 -0.288784,0.177226 -1.222149,0.09694 -1.731235,-0.148912 -2.53126,-0.116878 -2.930809,0.117353 -0.539501,0.316274 -0.739146,0.814855 -0.856476,2.138908 -0.05631,0.635395 -0.1553,1.340592 -0.21999,1.567104 -0.102672,0.35951 -0.159936,0.415925 -0.450668,0.443987 -0.183179,0.01768 -0.831827,-0.105697 -1.441442,-0.274172 -1.47373,-0.407287 -1.805055,-0.455492 -2.270069,-0.330276 -0.735785,0.198126 -1.08834,0.744222 -1.520754,2.355589 -0.293233,1.092721 -0.549352,1.562916 -0.851331,1.562916 -0.09494,0 -0.755122,-0.279563 -1.467077,-0.621253 -0.711955,-0.341688 -1.462303,-0.648489 -1.667441,-0.681778 -1.023,-0.16601 -1.54036,0.246495 -2.388342,1.904286 -0.314902,0.615631 -0.662805,1.201008 -0.773119,1.30084 -0.276737,0.250444 -0.573458,0.15411 -1.33682,-0.434014 -1.262351,-0.972567 -1.711597,-1.253977 -2.18452,-1.368396 -0.850594,-0.205792 -1.261983,0.07935 -2.948424,2.043586 -0.692299,0.806338 -0.854419,0.815838 -1.523395,0.08926 z"
     id="path3" /></svg>
