<?xml version="1.0" encoding="UTF-8" standalone="no"?>
<svg
   version="1.1"
   viewBox="-5.0 -10.0 110.0 135.0"
   id="svg6"
   sodipodi:docname="noun-rice-6888959.svg"
   inkscape:version="1.3 (0e150ed6c4, 2023-07-21)"
   xmlns:inkscape="http://www.inkscape.org/namespaces/inkscape"
   xmlns:sodipodi="http://sodipodi.sourceforge.net/DTD/sodipodi-0.dtd"
   xmlns="http://www.w3.org/2000/svg"
   xmlns:svg="http://www.w3.org/2000/svg">
  <defs
     id="defs6" />
  <sodipodi:namedview
     id="namedview6"
     pagecolor="#505050"
     bordercolor="#eeeeee"
     borderopacity="1"
     inkscape:showpageshadow="0"
     inkscape:pageopacity="0"
     inkscape:pagecheckerboard="0"
     inkscape:deskcolor="#505050"
     inkscape:zoom="5.7555556"
     inkscape:cx="54.990347"
     inkscape:cy="67.5"
     inkscape:window-width="1920"
     inkscape:window-height="991"
     inkscape:window-x="-9"
     inkscape:window-y="-9"
     inkscape:window-maximized="1"
     inkscape:current-layer="svg6" />
  <g
     id="g5">
    <path
       d="m39.199 18.348c0 0.83594 0.67578 1.5117 1.5078 1.5117 3.0234-0.34375 0.78906-4.5898-0.26172-5.2305-0.62891-0.62891-0.88672-0.91406-0.88672-1.5898 0-0.67578 0.25391-0.95703 0.88672-1.5898v0.003906c1.1133-0.92188 1.7578-2.2812 1.7695-3.7227-0.015625-0.82422-0.68359-1.4805-1.5078-1.4805-0.82031 0-1.4922 0.65625-1.5078 1.4805 0 0.67578-0.25391 0.95703-0.88672 1.5898v-0.003906c-1.1211 0.91406-1.7695 2.2812-1.7695 3.7227 0 1.4453 0.64844 2.8125 1.7695 3.7227 0.62891 0.62891 0.88672 0.91406 0.88672 1.5859z"
       id="path1" />
    <path
       d="m49.82 18.348c0 0.83594 0.67578 1.5117 1.5078 1.5117 3.0234-0.34375 0.78906-4.5898-0.26172-5.2305-0.62891-0.62891-0.88672-0.91406-0.88672-1.5898 0-0.67578 0.25391-0.95703 0.88672-1.5898v0.003906c1.1094-0.92188 1.7578-2.2812 1.7695-3.7227-0.011719-0.82422-0.68359-1.4844-1.5078-1.4844s-1.4961 0.66016-1.5078 1.4844c0 0.67578-0.25391 0.95703-0.88672 1.5898v-0.003906c-1.1211 0.91406-1.7695 2.2812-1.7695 3.7227 0 1.4453 0.64844 2.8125 1.7695 3.7227 0.62891 0.62891 0.88672 0.91406 0.88672 1.5859z"
       id="path2" />
    <path
       d="m60.438 18.348c0 0.83594 0.67578 1.5117 1.5117 1.5117 3.0234-0.34375 0.78906-4.5898-0.26172-5.2305-0.62891-0.62891-0.88672-0.91406-0.88672-1.5898 0-0.67578 0.25391-0.95703 0.88672-1.5898v0.003906c1.1094-0.92188 1.7578-2.2812 1.7695-3.7227-0.015625-0.82422-0.6875-1.4805-1.5078-1.4805-0.82422 0-1.4961 0.65625-1.5117 1.4805 0 0.67578-0.25391 0.95703-0.88672 1.5898l0.003907-0.003906c-1.1211 0.91406-1.7695 2.2812-1.7695 3.7227 0 1.4453 0.64844 2.8125 1.7695 3.7227 0.62891 0.62891 0.88281 0.91406 0.88281 1.5859z"
       id="path3" />
    <path
       d="m84.406 52.156c0.32031-2.207-0.28125-4.4492-1.6641-6.2031-1.3789-1.7539-3.418-2.8633-5.6367-3.0742 0.089843-2.2734-0.77344-4.4805-2.3789-6.0898-1.6094-1.6094-3.8164-2.4688-6.0898-2.3789-0.26953-2.6406-1.8047-4.9883-4.1172-6.2969-2.3125-1.3047-5.1133-1.4102-7.5156-0.28125-1.5-2.4297-4.1484-3.9102-7.0039-3.9102s-5.5039 1.4805-7.0039 3.9102c-2.4023-1.1289-5.2031-1.0234-7.5156 0.28125-2.3125 1.3086-3.8477 3.6562-4.1172 6.2969-0.10938-0.011718-0.22266-0.015625-0.33203-0.015625-2.2188 0.003907-4.3398 0.91016-5.8711 2.5117-1.5352 1.5977-2.3516 3.7539-2.2656 5.9727-2.2188 0.21094-4.2578 1.3203-5.6367 3.0742-1.3828 1.7539-1.9844 3.9961-1.6641 6.2031zm-19.828-6.8633 1.3125-1.3125c0.58984-0.57031 1.5273-0.55859 2.1055 0.019531s0.58984 1.5156 0.023437 2.1055c-0.57031 0.47656-1.5117 1.8633-2.3711 1.75-0.60547-0.003907-1.1484-0.36719-1.3828-0.92578-0.23438-0.55859-0.10938-1.2031 0.3125-1.6367zm-8.8906-10.203c0.28516-0.28125 0.66797-0.44141 1.0664-0.44141 0.39844 0 0.78125 0.16016 1.0625 0.44141l1.3125 1.3125c0.28516 0.28125 0.44531 0.66406 0.44531 1.0664 0 0.39844-0.16016 0.78125-0.44141 1.0625-0.28125 0.28516-0.66797 0.44141-1.0664 0.44141-0.39844 0-0.78125-0.16016-1.0625-0.44141l-1.3125-1.3125h-0.003906c-0.28125-0.28125-0.44141-0.66406-0.44141-1.0664 0-0.39844 0.16016-0.78125 0.44141-1.0625zm-5.7188 9.6875c0.015625-0.82031 0.6875-1.4805 1.5117-1.4805 0.82031 0 1.4922 0.66016 1.5078 1.4805v1.8438c-0.015625 0.82031-0.6875 1.4805-1.5078 1.4805-0.82422 0-1.4961-0.66016-1.5117-1.4805zm-7.4102-8.9023c0.015625-0.82422 0.6875-1.4883 1.5117-1.4883 0.82422 0 1.4961 0.66406 1.5078 1.4883v1.8555c-0.011719 0.82422-0.68359 1.4883-1.5078 1.4883-0.82422 0-1.4961-0.66406-1.5117-1.4883zm-9.1016 8.1055h0.003907c0.59375-0.58984 1.5508-0.58984 2.1406 0l1.2969 1.3125h0.003906c0.28516 0.28125 0.44531 0.66406 0.44531 1.0664 0.003906 0.39844-0.15625 0.78516-0.4375 1.0664-0.28516 0.28516-0.66797 0.44531-1.0703 0.44141-0.40234 0-0.78516-0.16016-1.0664-0.44922l-1.3125-1.3125c-0.28516-0.28125-0.44141-0.66406-0.44141-1.0625 0-0.39844 0.15625-0.78125 0.44141-1.0625z"
       id="path4" />
    <path
       d="m87.062 56.684c0.003906-0.39844-0.15234-0.78516-0.4375-1.0703-0.28125-0.28125-0.66797-0.44141-1.0703-0.4375h-71.109c-0.40234-0.003906-0.78906 0.15625-1.0703 0.4375-0.28516 0.28516-0.44141 0.67188-0.4375 1.0703-0.027344 6.7031 1.7773 13.281 5.2109 19.031 3.4375 5.7539 8.375 10.457 14.285 13.613l-0.22656 1.2383c-0.10938 0.79688 0.12891 1.6094 0.66016 2.2188 0.52734 0.60938 1.293 0.96094 2.1016 0.96484h30.062c0.81641 0 1.5938-0.36328 2.125-0.98828 0.52734-0.625 0.75781-1.4492 0.62109-2.2578l-0.21094-1.1758c5.9102-3.1562 10.848-7.8594 14.285-13.613 3.4336-5.75 5.2383-12.328 5.2109-19.031z"
       id="path5" />
  </g>
</svg>
