<?xml version="1.0" encoding="UTF-8" standalone="no"?>
<svg
   version="1.1"
   viewBox="-5.0 -10.0 110.0 135.0"
   id="svg2"
   sodipodi:docname="noun-sandwich-6977465.svg"
   inkscape:version="1.3 (0e150ed6c4, 2023-07-21)"
   xmlns:inkscape="http://www.inkscape.org/namespaces/inkscape"
   xmlns:sodipodi="http://sodipodi.sourceforge.net/DTD/sodipodi-0.dtd"
   xmlns="http://www.w3.org/2000/svg"
   xmlns:svg="http://www.w3.org/2000/svg">
  <defs
     id="defs2" />
  <sodipodi:namedview
     id="namedview2"
     pagecolor="#505050"
     bordercolor="#eeeeee"
     borderopacity="1"
     inkscape:showpageshadow="0"
     inkscape:pageopacity="0"
     inkscape:pagecheckerboard="0"
     inkscape:deskcolor="#505050"
     inkscape:zoom="5.7555556"
     inkscape:cx="54.990347"
     inkscape:cy="67.5"
     inkscape:window-width="1920"
     inkscape:window-height="991"
     inkscape:window-x="-9"
     inkscape:window-y="-9"
     inkscape:window-maximized="1"
     inkscape:current-layer="svg2" />
  <path
     d="m55.957 78.141c0.47656-0.27344 1.0859-0.11328 1.3633 0.36328 0.27344 0.47656 0.11328 1.0859-0.36328 1.3633l-5.1055 2.9492c-0.47656 0.27344-1.0859 0.11328-1.3633-0.36328-0.27344-0.47656-0.11328-1.0859 0.36328-1.3633zm20.727 7.3828c0.47656-0.27344 1.0859-0.11328 1.3633 0.36328 0.27344 0.47656 0.11328 1.0859-0.36328 1.3633l-5.1055 2.9492c-0.47656 0.27344-1.0859 0.11328-1.3633-0.36328-0.27344-0.47656-0.11328-1.0859 0.36328-1.3633zm-43.062-19.055c0.47656-0.27344 1.0859-0.11328 1.3633 0.36328 0.27344 0.47656 0.11328 1.0859-0.36328 1.3633l-5.1055 2.9492c-0.47656 0.27344-1.0859 0.11328-1.3633-0.36328-0.27344-0.47656-0.11328-1.0859 0.36328-1.3633zm-16.012 14.625c0.47656-0.27344 1.0859-0.11328 1.3633 0.36328 0.27344 0.47656 0.11328 1.0859-0.36328 1.3633l-5.1055 2.9492c-0.47656 0.27344-1.0859 0.11328-1.3633-0.36328-0.27344-0.47656-0.11328-1.0859 0.36328-1.3633zm14.961 1.4766c0.47656-0.27344 1.0859-0.10937 1.3594 0.36719 0.27344 0.47656 0.10937 1.0859-0.36719 1.3594l-5.1055 2.9492c-0.47656 0.27344-1.0859 0.10938-1.3594-0.36719-0.27344-0.47656-0.10938-1.0859 0.36719-1.3594zm23.387-19.055c0.47656-0.27344 1.0859-0.10938 1.3594 0.36719 0.27344 0.47656 0.10938 1.0859-0.36719 1.3594l-5.1055 2.9492c-0.47656 0.27344-1.0859 0.10938-1.3594-0.36719-0.27344-0.47656-0.10938-1.0859 0.36719-1.3594zm-19.781-18.285c0.47656-0.27344 1.0859-0.10938 1.3594 0.36719 0.27344 0.47656 0.10938 1.0859-0.36719 1.3594l-5.1055 2.9492c-0.47656 0.27344-1.0859 0.10938-1.3594-0.36719-0.27344-0.47656-0.10938-1.0859 0.36719-1.3594zm-21.117 8.0391c0.47656-0.27344 1.0859-0.11328 1.3633 0.36328 0.27344 0.47656 0.11328 1.0859-0.36328 1.3633l-5.1055 2.9492c-0.47656 0.27344-1.0859 0.11328-1.3633-0.36328-0.27344-0.47656-0.11328-1.0859 0.36328-1.3633zm9.8516-23.699c0.47656-0.27344 1.0859-0.11328 1.3633 0.36328 0.27344 0.47656 0.11328 1.0859-0.36328 1.3633l-5.1055 2.9492c-0.47656 0.27344-1.0859 0.11328-1.3633-0.36328-0.27344-0.47656-0.11328-1.0859 0.36328-1.3633zm-12.402-6.1094c0.47656-0.27344 1.0859-0.10938 1.3594 0.36719 0.27344 0.47656 0.10937 1.0859-0.36719 1.3594l-5.1094 2.9492c-0.47656 0.27344-1.0859 0.10938-1.3594-0.36719-0.27344-0.47656-0.10938-1.0859 0.36719-1.3594zm22.676-5.9414c0.019531 0.82031-0.035156 1.6406-0.16797 2.4531 1.7734-0.28906 3.5938-0.21094 5.3594 0.23828 2.2109 0.57031 4.2812 1.707 6.0195 3.4453 1.7188 1.7422 2.8398 3.8086 3.3906 5.9844 0.44141 1.7422 0.51562 3.5625 0.22656 5.332 1.7734-0.28906 3.5898-0.21484 5.332 0.22656 2.1992 0.55859 4.2891 1.6992 6.0117 3.4258 1.7266 1.7305 2.8711 3.8125 3.4297 6.0156 0.44141 1.7422 0.51562 3.5625 0.22656 5.332 1.7695-0.28906 3.5898-0.21484 5.332 0.22656 2.2031 0.55859 4.2891 1.6992 6.0117 3.4219 1.7227 1.7188 2.8672 3.8086 3.4258 6.0156 0.078125 0.30859 0.14453 0.62109 0.19922 0.93359v-29.18c0-3.7852-1.5391-7.2344-4.0508-9.7695-2.5391-2.5391-6.0078-4.1016-9.8203-4.1016h-30.93zm46.801 47.16c0.98047-0.054688 1.9609 0.003906 2.9375 0.21094 2.168 0.45312 4.3047 1.6016 6.4648 3.7656 0.73047 0.74609 1.3398 1.5781 1.8438 2.4961l2.8281-10.551-14.078-3.7695v7.8555zm-66.957-55.332 75.598 75.598c1.6445-1.9727 2.3711-4.5 2.3555-6.9922-0.019531-3.0156-1.1172-5.9727-3.0078-7.8945-1.8672-1.8633-3.6641-2.8438-5.457-3.2188-1.8008-0.375-3.6445-0.15625-5.5469 0.40625-0.17578 0.050781-0.37109 0.054687-0.5625 0-0.52734-0.15625-0.83203-0.71094-0.67578-1.2383 0.56641-1.9141 0.60547-3.957 0.11328-5.8906-0.47266-1.8594-1.4414-3.625-2.8984-5.082-1.457-1.4609-3.2227-2.4258-5.0859-2.8984-1.9336-0.48828-3.9766-0.45312-5.8906 0.11328-0.17578 0.050781-0.37109 0.054688-0.5625 0-0.52734-0.15625-0.83203-0.71094-0.67578-1.2383 0.56641-1.9141 0.60547-3.957 0.11719-5.8906-0.47266-1.8633-1.4414-3.6289-2.8984-5.082-1.4609-1.4609-3.2266-2.4297-5.0898-2.9023-1.9336-0.48828-3.9766-0.45312-5.8906 0.11328-0.17578 0.050781-0.37109 0.054688-0.5625 0-0.52734-0.15625-0.83203-0.71094-0.67578-1.2383 0.56641-1.9141 0.60547-3.9531 0.11328-5.8906-0.46484-1.8359-1.418-3.5859-2.8711-5.0586-1.4805-1.4766-3.2344-2.4453-5.0977-2.9219-1.9492-0.49609-3.9922-0.45703-5.9062 0.10938-0.17578 0.050781-0.37109 0.054688-0.5625 0-0.52734-0.15625-0.83203-0.71094-0.67578-1.2383 0.56641-1.9141 0.60547-3.9531 0.11328-5.8867-0.47266-1.8633-1.4414-3.6289-2.8984-5.0898-2.168-2.1719-4.9492-3.3047-7.7227-3.3516-2.5586-0.046875-5.1211 0.82812-7.1953 2.6641zm-9.5078 87.148h88.93c0.42578 0 0.82031-0.11719 1.1328-0.32812 0.32031-0.21484 0.58203-0.53125 0.74609-0.92578 0.16016-0.38672 0.19922-0.79688 0.12109-1.1797-0.070313-0.35547-0.24609-0.69922-0.51953-0.98828l-88.977-88.973c-0.29688-0.29687-0.65625-0.49219-1.0352-0.56641-0.37109-0.074218-0.76562-0.039062-1.1602 0.11328-0.41406 0.17187-0.73047 0.43359-0.94531 0.75391-0.21094 0.31641-0.32812 0.70703-0.32812 1.1328v88.93c0 0.55469 0.23047 1.0664 0.59766 1.4336 0.36719 0.36719 0.87891 0.59766 1.4336 0.59766z"
     id="path1" />
</svg>
