<?xml version="1.0" encoding="UTF-8" standalone="no"?>
<svg
   version="1.1"
   x="0px"
   y="0px"
   viewBox="0 0 100 125"
   id="svg2"
   sodipodi:docname="sinisambola.svg"
   inkscape:version="1.3 (0e150ed6c4, 2023-07-21)"
   xmlns:inkscape="http://www.inkscape.org/namespaces/inkscape"
   xmlns:sodipodi="http://sodipodi.sourceforge.net/DTD/sodipodi-0.dtd"
   xmlns="http://www.w3.org/2000/svg"
   xmlns:svg="http://www.w3.org/2000/svg">
  <defs
     id="defs2" />
  <sodipodi:namedview
     id="namedview2"
     pagecolor="#505050"
     bordercolor="#eeeeee"
     borderopacity="1"
     inkscape:showpageshadow="0"
     inkscape:pageopacity="0"
     inkscape:pagecheckerboard="0"
     inkscape:deskcolor="#505050"
     inkscape:zoom="6.216"
     inkscape:cx="50.032175"
     inkscape:cy="62.5"
     inkscape:window-width="1920"
     inkscape:window-height="991"
     inkscape:window-x="-9"
     inkscape:window-y="-9"
     inkscape:window-maximized="1"
     inkscape:current-layer="svg2" />
  <g
     transform="translate(0,-952.36218)"
     id="g1">
    <path
       style="font-size:medium;font-style:normal;font-variant:normal;font-weight:normal;font-stretch:normal;text-indent:0;text-align:start;text-decoration:none;line-height:normal;letter-spacing:normal;word-spacing:normal;text-transform:none;direction:ltr;block-progression:tb;writing-mode:lr-tb;text-anchor:start;baseline-shift:baseline;opacity:1;color:#000000;fill:#000000;fill-opacity:1;stroke:none;stroke-width:3.99999905000000000;marker:none;visibility:visible;display:inline;overflow:visible;enable-background:accumulate;font-family:Sans;-inkscape-font-specification:Sans"
       d="M 28.96875 6 C 25.012006 5.99999 20.562631 7.33758 16.6875 9.4375 C 12.812369 11.53742 9.4295203 14.36784 8.03125 18 C 6.1768761 22.81694 7.1316073 27.05846 8.84375 30.4375 C 10.494199 33.69478 12.673799 36.30895 13.9375 38.75 L 13.9375 73.28125 C 13.9375 77.357461 15.939179 80.960826 18.96875 83.28125 A 2.0001995 2.0001995 0 0 0 19.09375 83.6875 C 20.665565 89.0339 25.648155 94 32 94 L 53 94 L 74 94 C 81.350228 94 87.96875 88.3294 87.96875 81.125 L 87.96875 46.21875 C 89.337928 43.74699 91.574259 41.02316 93.21875 37.71875 C 94.935405 34.26934 95.831606 29.95088 93.84375 25.125 C 92.176573 21.07763 87.614969 19.12436 83.90625 17.21875 A 2.0001995 2.0001995 0 0 0 83.53125 17.0625 C 81.946452 13.882878 78.842916 11.35062 75.3125 9.4375 C 71.437369 7.33758 66.987995 5.99999 63.03125 6 L 46 6 L 28.96875 6 z M 28.96875 10 L 46 10 L 63.03125 10 C 66.041001 10 70.054054 11.12095 73.40625 12.9375 C 76.758446 14.75405 79.395722 17.2996 80.21875 19.4375 C 81.657121 23.17382 81.01358 25.82286 79.59375 28.625 C 78.17392 31.42714 75.842818 34.13052 74.28125 37.3125 A 2.0001995 2.0001995 0 0 0 74.0625 38.1875 L 74.0625 73.28125 C 74.0625 78.03715 69.85805 82 65.0625 82 L 46 82 L 26.9375 82 C 22.141949 82 17.9375 78.03715 17.9375 73.28125 L 17.9375 38.1875 A 2.0001995 2.0001995 0 0 0 17.71875 37.3125 C 16.157182 34.13052 13.82608 31.42714 12.40625 28.625 C 10.98642 25.82286 10.342879 23.17382 11.78125 19.4375 C 12.604279 17.2996 15.241554 14.75405 18.59375 12.9375 C 21.945946 11.12095 25.959001 10 28.96875 10 z M 84.9375 22.375 C 87.493936 23.878506 89.624199 25.440465 90.125 26.65625 C 91.668438 30.40322 91.040801 33.09262 89.625 35.9375 C 88.209199 38.78238 85.873984 41.5353 84.21875 44.6875 A 2.0001995 2.0001995 0 0 0 83.96875 45.625 L 83.96875 81.125 C 83.96875 85.7786 79.270014 90 74 90 L 53 90 L 32 90 C 29.092597 90 26.332155 88.168576 24.5625 85.78125 C 25.336828 85.926137 26.129934 86 26.9375 86 L 46 86 L 65.0625 86 C 72.03467 86 78.0625 80.35625 78.0625 73.28125 L 78.0625 38.75 C 79.326201 36.30895 81.505801 33.69478 83.15625 30.4375 C 84.32939 28.122221 85.135541 25.407776 84.9375 22.375 z "
       transform="translate(0,952.36218)"
       id="path1" />
  </g>
</svg>
